<svg width="30" height="16" viewBox="0 0 30 16" fill="none" xmlns="http://www.w3.org/2000/svg">
<g>
<path d="M5.52248 7.0767C6.83106 7.0767 7.89186 5.93525 7.89186 4.5272C7.89186 3.11914 6.83106 1.97769 5.52248 1.97769C4.21391 1.97769 3.15311 3.11914 3.15311 4.5272C3.15311 5.93525 4.21391 7.0767 5.52248 7.0767Z" fill="white"/>
<path d="M8.6856 8.8614C8.07073 9.35946 7.57192 10.0045 7.22856 10.7457C6.8852 11.4868 6.70671 12.3037 6.70717 13.1318V13.4505H1.67224C1.18652 13.4505 0.783722 13.0171 0.783722 12.4944V11.8571C0.783722 9.91945 2.24089 8.3515 4.04162 8.3515H7.00334C7.61938 8.3515 8.19987 8.54271 8.6856 8.8614Z" fill="white"/>
<path d="M24.4775 7.0767C25.7861 7.0767 26.8469 5.93525 26.8469 4.5272C26.8469 3.11914 25.7861 1.97769 24.4775 1.97769C23.1689 1.97769 22.1081 3.11914 22.1081 4.5272C22.1081 5.93525 23.1689 7.0767 24.4775 7.0767Z" fill="white"/>
<path d="M29.2163 11.8571V12.4944C29.2163 13.0171 28.8135 13.4505 28.3278 13.4505H23.2928V13.1318C23.2928 11.3854 22.5109 9.83021 21.3144 8.8614C21.8001 8.54271 22.3806 8.3515 22.9967 8.3515H25.9584C27.7591 8.3515 29.2163 9.91945 29.2163 11.8571Z" fill="white"/>
<path d="M15 7.7141C16.9628 7.7141 18.5541 6.00192 18.5541 3.88984C18.5541 1.77776 16.9628 0.0655823 15 0.0655823C13.0371 0.0655823 11.4459 1.77776 11.4459 3.88984C11.4459 6.00192 13.0371 7.7141 15 7.7141Z" fill="white"/>
<path d="M18.2579 9.62622H11.7421C10.8782 9.6269 10.0499 9.99645 9.4391 10.6537C8.82826 11.311 8.48482 12.2023 8.48419 13.1318V15.0439C8.48419 15.5717 8.88225 16 9.37271 16H20.6273C20.8629 16 21.0889 15.8993 21.2555 15.72C21.4222 15.5407 21.5158 15.2975 21.5158 15.0439V13.1318C21.5151 12.2023 21.1717 11.311 20.5609 10.6537C19.95 9.99645 19.1217 9.6269 18.2579 9.62622Z" fill="white"/>
</g>
</svg>
