<?xml version="1.0" encoding="utf-8"?>
<!-- Generator: Adobe Illustrator 24.1.1, SVG Export Plug-In . SVG Version: 6.00 Build 0)  -->
<svg version="1.1" id="Layer_1" xmlns="http://www.w3.org/2000/svg" xmlns:xlink="http://www.w3.org/1999/xlink" x="0px" y="0px"
	 viewBox="0 0 400 400" style="enable-background:new 0 0 400 400;" xml:space="preserve">
<style type="text/css">
	.st0{fill:#EFEBE5;}
	.st1{fill:none;stroke:#776464;stroke-width:6;stroke-linecap:round;stroke-miterlimit:10;}
	.st2{fill:none;stroke:#776464;stroke-width:6;stroke-linecap:round;stroke-linejoin:round;stroke-miterlimit:10;}
	.st3{fill:#776464;stroke:#776464;stroke-width:3;stroke-miterlimit:10;}
</style>
<g id="Stroke-_Brown">
	<path class="st0" d="M326.9,186.8c-0.9,33-14.9,65.8-21,79.3c-7,15.4-15.2,29-23.6,41.6c-21.2,31.8-46.7,30.3-57.7,4.3
		c-15.2,0.6-31.9,0.7-46.7,0.2c-4.8,14.6-14.9,20.5-23.5,20.8c-10.8,0.4-23.5-7.5-35.5-25.4c-8.4-12.5-16.6-26.2-23.6-41.6
		c-6.1-13.5-20.1-46.3-21-79.3c-0.7-24.2,6.8-46.4,19.3-62.9c4.6-6.1,13-13.7,19.7-18.8c-0.4-0.2-0.8-0.3-1.1-0.5
		c-12-5.9-17.8-15.3-19.7-21.4c-2-6.6-1-13,3.9-17.4c5.8-5.2,16.6-3,22,3c4.8,5.3,13.1,13.7,21.1,20.4c5.8-3.9,13.7-8.1,23.3-11.4
		c10.6-3.6,23.4-6.2,37.7-6.2c27.2,0,49.1,9.3,61.3,17.4c7.9-6.7,16-14.9,20.8-20.1c5.5-6,16.2-8.1,22-3c4.9,4.4,6,10.8,3.9,17.4
		c-1.9,6.1-7.7,15.5-19.7,21.4c-0.1,0-0.2,0.1-0.3,0.1c10.4,8.3,21.8,21.7,27.7,33.6C323.5,152.4,327.4,169.1,326.9,186.8z"/>
	<path class="st1" d="M113.1,106.1c-6.7,5-15.1,12.7-19.7,18.8c-12.5,16.5-20,38.7-19.3,62.9c0.9,33,14.9,65.8,21,79.3
		c7,15.4,15.2,29,23.6,41.6c11.9,17.9,24.7,25.8,35.5,25.4c8.6-0.3,18.7-6.2,23.5-20.8"/>
	<path class="st1" d="M143.2,133.6c-19.5,12.5-38.3,30.1-40.8,46.5c-2.5,15.7,3.6,42.3,20.4,58.6c2.8,2.7,6.8,4.9,11.5,6.7"/>
	<path class="st1" d="M175.2,251.6v1.6c0,6.9-5.6,12.5-12.5,12.5h-16c-6.9,0-12.5-5.6-12.5-12.5v-7.9
		C145.3,249.4,160.6,251.1,175.2,251.6z"/>
	<ellipse class="st2" cx="149.3" cy="177.1" rx="22.1" ry="8.6"/>
	<ellipse class="st3" cx="187.9" cy="129" rx="4.3" ry="5.7"/>
	<path class="st1" d="M139.3,89.7c5.8-3.9,13.7-8.1,23.3-11.4c10.6-3.6,23.3-6.2,37.7-6.2c27.2,0,49.1,9.3,61.3,17.4"/>
	<path class="st1" d="M288.6,107.3c10.4,8.3,21.8,21.7,27.7,33.6c7,14.1,10.9,30.8,10.4,48.5c-0.9,33-14.9,65.8-21,79.3
		c-7,15.4-15.2,29-23.6,41.6c-21.2,31.8-46.6,30.3-57.7,4.3"/>
	<path class="st1" d="M247.9,311.1c-26.9,2.4-71.4,2.8-95,0"/>
	<path class="st2" d="M309.3,80c-2.9-5.1-7-6.3-10.9-6c-6,0.6-12.2,9.6-22,19.7c-9.2,9.5-14,12.8-26,16.1
		c13.8,1.4,29.4-0.3,38.4-4.7c12-5.9,17.8-15.3,19.7-21.4c2-6.6,1-13-3.9-17.4c-5.8-5.2-16.6-3-22,3c-9.4,10.2-31.6,31.9-39.4,31
		c-5.5-0.7-14.7-11.4-42.7-11.4l0,0c-28,0-37.2,10.7-42.7,11.4c-7.8,0.9-30-20.8-39.4-31c-5.5-6-16.2-8.1-22-3
		c-4.9,4.4-5.9,10.7-3.9,17.4c1.9,6.2,7.7,15.6,19.7,21.4c9,4.4,24.6,6.1,38.4,4.7c-12-3.3-16.8-6.6-26-16.1
		c-9.8-10.1-16-19.1-22-19.7c-3.9-0.4-8,0.9-10.9,6"/>
	<path class="st1" d="M175.2,251.6c9,0.4,17.8,0.3,25.1,0.2c7.4,0.1,16.2,0.2,25.2-0.2"/>
	<path class="st1" d="M266.5,245.4c4.7-1.7,8.7-3.9,11.5-6.7c16.9-16.3,22.9-42.9,20.4-58.6c-2.5-16.3-21.3-34-40.8-46.5"/>
	<path class="st1" d="M225.5,251.6v1.6c0,6.9,5.6,12.5,12.5,12.5h16c6.9,0,12.5-5.6,12.5-12.5v-7.9
		C255.5,249.4,240.2,251.1,225.5,251.6z"/>
	<path class="st2" d="M273.6,177.1c0,4.8-9.9,8.6-22.1,8.6c-12.2,0-22.1-3.9-22.1-8.6c0-4.8,9.9-8.6,22.1-8.6
		S273.6,172.3,273.6,177.1z"/>
	<ellipse class="st3" cx="212.8" cy="129" rx="4.3" ry="5.7"/>
</g>
</svg>
