<?xml version="1.0" encoding="utf-8"?>
<!-- Generator: Adobe Illustrator 24.1.1, SVG Export Plug-In . SVG Version: 6.00 Build 0)  -->
<svg version="1.1" id="Layer_1" xmlns="http://www.w3.org/2000/svg" xmlns:xlink="http://www.w3.org/1999/xlink" x="0px" y="0px"
	 viewBox="0 0 175.8 179.7" style="enable-background:new 0 0 175.8 179.7;" xml:space="preserve">
<style type="text/css">
	.st0{display:none;fill:#FFFFFF;}
	.st1{fill-rule:evenodd;clip-rule:evenodd;fill:#FFFFFF;}
</style>
<path class="st0" d="M104.7,76.1L170.1,0h-15.5L97.8,66.1L52.4,0H0l68.7,99.9L0,179.7h15.5l60-69.8l47.9,69.8h52.4L104.7,76.1
	L104.7,76.1z M83.4,100.8l-7-10L21.1,11.7h23.8l44.7,63.9l7,10l58.1,83h-23.9L83.4,100.8z"/>
<path class="st1" d="M128.3,50.4h29c2.7,0,4.9,2.2,4.9,4.9v106.3c0,2.7-2.2,4.9-4.9,4.9h-29c-2.7,0-4.9-2.2-4.9-4.9V55.3
	C123.4,52.6,125.6,50.4,128.3,50.4L128.3,50.4z M63,29l-5.7-4.2c-0.5-0.4-0.7-0.9-0.6-1.6c0.1-0.6,0.5-1.1,1.1-1.3l26.9-8.6
	c0.5-0.2,1-0.1,1.4,0.2c0.4,0.3,0.7,0.7,0.7,1.2l2,29.7c0,0.6-0.3,1.2-0.8,1.5c-0.6,0.3-1.2,0.3-1.8-0.1l-5.2-3.8
	c-19.9,27.5-40.2,34-65.9,31.1c-0.8-0.1-1.4-0.7-1.4-1.5c-0.1-0.8,0.4-1.5,1.2-1.7C43.5,61.9,58.5,38.3,63,29z M22.7,111h29
	c2.7,0,4.9,2.2,4.9,4.9v45.7c0,2.7-2.2,4.9-4.9,4.9h-29c-2.7,0-4.9-2.2-4.9-4.9v-45.7C17.8,113.2,20,111,22.7,111L22.7,111z
	 M104.5,80.7h-29c-2.7,0-4.9,2.2-4.9,4.9v76c0,2.7,2.2,4.9,4.9,4.9h29c2.7,0,4.9-2.2,4.9-4.9v-76C109.3,82.9,107.1,80.7,104.5,80.7z
	"/>
</svg>
