<?xml version="1.0" encoding="utf-8"?>
<!-- Generator: Adobe Illustrator 24.1.1, SVG Export Plug-In . SVG Version: 6.00 Build 0)  -->
<svg version="1.1" id="Layer_1" xmlns="http://www.w3.org/2000/svg" xmlns:xlink="http://www.w3.org/1999/xlink" x="0px" y="0px"
	 viewBox="0 0 175.8 179.7" style="enable-background:new 0 0 175.8 179.7;" xml:space="preserve">
<style type="text/css">
	.st0{display:none;fill:#FFFFFF;}
	.st1{display:none;fill-rule:evenodd;clip-rule:evenodd;fill:#FFFFFF;}
	.st2{fill:#FFFFFF;}
</style>
<path class="st0" d="M104.7,76.1L170.1,0h-15.5L97.8,66.1L52.4,0H0l68.7,99.9L0,179.7h15.5l60-69.8l47.9,69.8h52.4L104.7,76.1
	L104.7,76.1z M83.4,100.8l-7-10L21.1,11.7h23.8l44.7,63.9l7,10l58.1,83h-23.9L83.4,100.8z"/>
<path class="st1" d="M128.3,50.4h29c2.7,0,4.9,2.2,4.9,4.9v106.3c0,2.7-2.2,4.9-4.9,4.9h-29c-2.7,0-4.9-2.2-4.9-4.9V55.3
	C123.4,52.6,125.6,50.4,128.3,50.4L128.3,50.4z M63,29l-5.7-4.2c-0.5-0.4-0.7-0.9-0.6-1.6c0.1-0.6,0.5-1.1,1.1-1.3l26.9-8.6
	c0.5-0.2,1-0.1,1.4,0.2c0.4,0.3,0.7,0.7,0.7,1.2l2,29.7c0,0.6-0.3,1.2-0.8,1.5c-0.6,0.3-1.2,0.3-1.8-0.1l-5.2-3.8
	c-19.9,27.5-40.2,34-65.9,31.1c-0.8-0.1-1.4-0.7-1.4-1.5c-0.1-0.8,0.4-1.5,1.2-1.7C43.5,61.9,58.5,38.3,63,29z M22.7,111h29
	c2.7,0,4.9,2.2,4.9,4.9v45.7c0,2.7-2.2,4.9-4.9,4.9h-29c-2.7,0-4.9-2.2-4.9-4.9v-45.7C17.8,113.2,20,111,22.7,111L22.7,111z
	 M104.5,80.7h-29c-2.7,0-4.9,2.2-4.9,4.9v76c0,2.7,2.2,4.9,4.9,4.9h29c2.7,0,4.9-2.2,4.9-4.9v-76C109.3,82.9,107.1,80.7,104.5,80.7z
	"/>
<path class="st2" d="M56.1,56.2c-11.4-11.3-11.4-29.7-0.1-41s29.7-11.4,41-0.1s11.4,29.7,0.1,41c0,0-0.1,0.1-0.1,0.1
	c-1,1-2.7,1-3.7,0c-1-1-1-2.7,0-3.7c9.3-9.3,9.3-24.4,0-33.7c-9.3-9.3-24.4-9.3-33.7,0s-9.3,24.4,0,33.7c0,0,0,0,0.1,0.1
	c1,1,1,2.7,0,3.7C58.8,57.3,57.1,57.3,56.1,56.2C56.1,56.3,56.1,56.2,56.1,56.2L56.1,56.2z M135.6,81.6c-3.5-2-7.7-2-11.2,0
	c-0.1,0.1-0.3,0.2-0.4,0.3c-0.5-6.9-6-10.6-11.5-10.6h0c-3.3,0-6.6,1.3-8.8,3.8c-2.2-2.7-5.7-4.2-9.1-4.2h0c-2.2,0-4.5,0.6-6.4,1.8
	l0-36.9c0-6.4-5.2-11.6-11.5-11.6h0c-6.4,0-11.5,5.2-11.6,11.6l0,61l-6.4-8.5c-3.6-4.8-9.2-7.3-14.6-6.7c-4,0.5-7.2,2.8-8.6,6
	c-0.9,2.2-1.8,6.7,2.8,12.7c9.5,12.5,12.7,21.6,15.5,29.7c2.3,6.6,4.3,12.2,9.1,17.7c4.3,4.9,6.3,10.4,6.3,16.9l0,5.8
	c0,1.4,1.1,2.6,2.6,2.6c0,0,0,0,0,0h50c1.4,0,2.6-1.2,2.6-2.6l0-5.8c-0.1-6.5,2-12,6.3-16.9c6.9-7.9,10.7-18,10.7-28.5l0-27
	C141.2,87.5,139.2,83.6,135.6,81.6L135.6,81.6z"/>
</svg>
