<svg width="30" height="30" viewBox="0 0 20 21" fill="none" xmlns="http://www.w3.org/2000/svg">
<g>
<path d="M16.8285 1.3381H16.0214V0.669048C16.0214 0.301071 15.7204 0 15.3524 0C14.9844 0 14.6833 0.301071 14.6833 0.669048V1.3381H10.669V0.669048C10.669 0.301071 10.368 0 10 0C9.63202 0 9.33095 0.301071 9.33095 0.669048V1.3381H5.31667V0.669048C5.31667 0.301071 5.01559 0 4.64762 0C4.27964 0 3.97857 0.301071 3.97857 0.669048V1.3381H3.17153C1.77071 1.34228 0.637513 2.47548 0.633331 3.8763V17.5332C0.637513 18.934 1.77071 20.0714 3.17153 20.0714H16.8285C18.2293 20.0672 19.3667 18.934 19.3667 17.5332V3.8763C19.3625 2.47548 18.2293 1.34228 16.8285 1.3381ZM8.46537 13.1844L6.45823 15.1916C6.19897 15.4508 5.77245 15.4508 5.5132 15.1916L4.1751 13.8535C3.90748 13.5984 3.9033 13.1719 4.15838 12.9084C4.41345 12.6408 4.83997 12.6366 5.10341 12.8917C5.10759 12.8959 5.11595 12.9043 5.12013 12.9084L5.98571 13.774L7.52034 12.2394C7.78796 11.9843 8.2103 11.9885 8.46537 12.2561C8.71626 12.5154 8.71626 12.9252 8.46537 13.1844ZM8.46537 7.16299L6.45823 9.17014C6.19897 9.42939 5.77245 9.42939 5.5132 9.17014L4.1751 7.83204C3.90748 7.57697 3.9033 7.15045 4.15838 6.88701C4.41345 6.61939 4.83997 6.61521 5.10341 6.87028C5.10759 6.87447 5.11595 6.88283 5.12013 6.88701L5.98571 7.75259L7.52034 6.21796C7.78796 5.96289 8.2103 5.96707 8.46537 6.23469C8.71626 6.49394 8.71626 6.90374 8.46537 7.16299ZM15.3524 14.719H10.669C10.3011 14.719 10 14.418 10 14.05C10 13.682 10.3011 13.381 10.669 13.381H15.3524C15.7204 13.381 16.0214 13.682 16.0214 14.05C16.0214 14.418 15.7204 14.719 15.3524 14.719ZM15.3524 8.69762H10.669C10.3011 8.69762 10 8.39655 10 8.02857C10 7.6606 10.3011 7.35952 10.669 7.35952H15.3524C15.7204 7.35952 16.0214 7.6606 16.0214 8.02857C16.0214 8.39655 15.7204 8.69762 15.3524 8.69762Z" fill="white"/>
</g>
</svg>
