<svg id="Layer_1" data-name="Layer 1" xmlns="http://www.w3.org/2000/svg" viewBox="0 0 187.35 132.72">
  <defs>
    <style>
      .cls-1 {
        fill: #fff;
      }
    </style>
  </defs>
  <path class="cls-1" d="M191.06,55.36c-1-8.2-8.71-16.07-16.8-17.12a602,602,0,0,0-148.51,0c-8.1,1-15.83,8.92-16.81,17.12a383.05,383.05,0,0,0,0,89.28c1,8.2,8.71,16.08,16.81,17.12a602,602,0,0,0,148.51,0c8.09-1,15.82-8.92,16.8-17.12A383.05,383.05,0,0,0,191.06,55.36ZM84.39,131.23V68.78L131.22,100Z" transform="translate(-6.33 -33.64)"/>
</svg>
