<?xml version="1.0" encoding="utf-8"?>
<!-- Generator: Adobe Illustrator 24.1.1, SVG Export Plug-In . SVG Version: 6.00 Build 0)  -->
<svg version="1.1" id="Layer_1" xmlns="http://www.w3.org/2000/svg" xmlns:xlink="http://www.w3.org/1999/xlink" x="0px" y="0px"
	 viewBox="0 0 1024 1024" style="enable-background:new 0 0 1024 1024;" xml:space="preserve">
<style type="text/css">
	.st0{fill:#0C1422;}
	.st1{fill:#FEFEFE;}
	.st2{fill:#7D83A0;}
	.st3{fill:#52546C;}
	.st4{fill:#1F293E;}
	.st5{fill:#9397B2;}
	.st6{fill:#626785;}
	.st7{fill:#000004;}
	.st8{fill:url(#SVGID_1_);}
	.st9{fill:url(#SVGID_2_);}
	.st10{fill:#C96769;}
	.st11{fill:url(#SVGID_3_);}
	.st12{fill:#CDCEDD;}
	.st13{fill:url(#SVGID_4_);}
	.st14{fill:url(#SVGID_5_);}
	.st15{fill:url(#SVGID_6_);}
	.st16{fill:#ADB0C6;}
</style>
<path class="st0" d="M371.9,38.6c19.2-10.9,36.3-10.6,57.4-4.7c8.9,2.5,17.6,6.8,25.4,11.7c6.3,4,11.6,11.6,19.1,12.7
	c8.1,1.1,29.5,0.9,37.2-0.4c7.6-1.3,15.1-4,22.5-6.4c17.5-5.8,34.7-12.7,51.8-19.4c10.2-4,21.4-9.4,32.6-8.9
	c13.8,0.7,25.9,8.7,36.2,17.1C670,53.1,682.1,69,692,86.8c4.5,8.1,11.7,21.8,14.6,30.4l0.9,2c3.5,9.1,6.2,18.3,9.1,27.6
	c6,19.1,12.4,39.3,13.6,59.4c9.8,0.8,19.6,2.2,29.4,3.3c5.5,0.7,11.1,1,16.6,1.8c5.8,0.8,11.8,3,17.6,3.2c9.1,0.2,16.6-5.9,28-4.9
	c4.5,0.4,10.5,2,13.5,5.5c0.8,0.9,1.4,1.9,2.1,2.9l0.2,6.7c0.1,0.1,0.3,0.2,0.4,0.3c4,3.3,9.4,5.2,14.1,7.5
	c11.5,5.8,20.4,15.3,24.4,27.6c0.8,2.5,0.8,5,1.5,7.4c0.7,6.2,0.6,15.8,2.9,21.2c1.8,4.3,5.2,8.4,7.9,12.3c4,5.7,7.9,11.5,11.6,17.4
	c5.6,9.2,10.9,18.6,15.9,28.1c5,9.6,9.6,19.3,13.9,29.2c2,4.6,3.9,9.3,5.7,14c1.8,4.7,3.6,9.4,5.3,14.1c1.7,4.7,3.3,9.5,4.8,14.3
	c1.5,4.8,2.9,9.6,4.3,14.5c1.3,4.8,2.6,9.7,3.8,14.6c1.2,4.9,2.3,9.8,3.3,14.7c1,4.9,1.9,9.9,2.8,14.8c0.8,5,1.6,9.9,2.3,14.9
	c0.7,5,1.3,10,1.8,15c0.5,5,0.9,10,1.3,15c0.3,5,0.6,10,0.8,15.1c0.2,5,0.3,10.1,0.3,15.1c0,5-0.1,10.1-0.3,15.1
	c-0.2,5-0.4,10.1-0.8,15.1c-0.3,5-0.8,10-1.3,15c-0.5,5-1.1,10-1.8,15c-0.7,5-1.4,10-2.3,14.9c-0.9,5-1.8,9.9-2.8,14.8
	c-1,4.9-2.1,9.8-3.3,14.7c-1.2,4.9-2.5,9.8-3.8,14.6c-1.4,4.8-2.8,9.7-4.3,14.5c-1.5,4.8-3.1,9.6-4.8,14.3
	c-1.7,4.7-3.4,9.5-5.3,14.1c-1.8,4.7-3.8,9.3-5.7,14c-2,4.6-4.1,9.2-6.2,13.8c-2.2,4.5-4.4,9.1-6.7,13.5c-2.3,4.5-4.7,8.9-7.1,13.3
	c-2.5,4.4-5,8.7-7.6,13.1c-2.6,4.3-5.3,8.6-8,12.8c-2.7,4.2-5.6,8.4-8.5,12.5c-2.9,4.1-5.8,8.2-8.9,12.2c-3,4-6.1,8-9.3,11.9
	C794.4,922,684,984.9,567.5,997.3c-6.8,0.7-13.4,2.7-20,3.3c-10.5,0.8-21.6,0.3-32.1,0.3c-13,0.1-28.2,0.6-41-0.3
	c-2.3-0.2-3.9-1.3-6-1.8c-4.7-1-10-1.2-14.8-1.9c-2.6-0.3-5.2-0.7-7.8-1.1c-2.6-0.4-5.2-0.8-7.7-1.2c-2.6-0.4-5.2-0.9-7.7-1.3
	c-2.6-0.5-5.1-0.9-7.7-1.5c-2.6-0.5-5.1-1-7.7-1.6c-2.6-0.5-5.1-1.1-7.6-1.7s-5.1-1.2-7.6-1.8c-2.5-0.6-5.1-1.3-7.6-2
	c-2.5-0.7-5-1.4-7.5-2.1c-2.5-0.7-5-1.5-7.5-2.2c-2.5-0.8-5-1.6-7.5-2.4c-2.5-0.8-5-1.6-7.4-2.5c-2.5-0.9-4.9-1.7-7.4-2.6
	c-2.5-0.9-4.9-1.8-7.3-2.8s-4.9-1.9-7.3-2.9c-2.4-1-4.8-2-7.2-3c-2.4-1-4.8-2.1-7.2-3.1c-2.4-1.1-4.8-2.1-7.1-3.2
	c-2.4-1.1-4.7-2.2-7.1-3.4c-2.3-1.1-4.7-2.3-7-3.5c-2.3-1.2-4.6-2.4-7-3.6c-2.3-1.2-4.6-2.5-6.9-3.7c-2.3-1.3-4.6-2.5-6.8-3.9
	c-2.3-1.3-4.5-2.6-6.8-4c-2.2-1.3-4.5-2.7-6.7-4.1c-2.2-1.4-4.4-2.8-6.6-4.2c-2.2-1.4-4.4-2.9-6.5-4.3c-2.2-1.5-4.3-2.9-6.5-4.4
	c-2.1-1.5-4.3-3-6.4-4.5c-2.1-1.5-4.2-3.1-6.3-4.6c-2.1-1.6-4.2-3.2-6.2-4.8c-2.1-1.6-4.1-3.2-6.1-4.9c-2.9-2.3-5.7-4.6-8.5-7
	c-2.8-2.4-5.6-4.8-8.3-7.2c-2.8-2.4-5.5-4.9-8.2-7.4c-2.7-2.5-5.4-5-8-7.6c-2.6-2.6-5.2-5.2-7.8-7.8c-2.6-2.6-5.1-5.3-7.6-8
	s-5-5.4-7.4-8.2c-2.4-2.8-4.8-5.5-7.2-8.4c-2.4-2.8-4.7-5.7-7-8.5c-2.3-2.9-4.6-5.8-6.8-8.7c-2.2-2.9-4.4-5.9-6.6-8.9
	c-2.1-3-4.3-6-6.3-9c-2.1-3-4.1-6.1-6.1-9.2c-2-3.1-4-6.2-5.9-9.3c-1.9-3.1-3.8-6.3-5.7-9.5c-1.8-3.2-3.7-6.4-5.4-9.6
	c-1.8-3.2-3.5-6.5-5.2-9.7c-1.7-3.3-3.3-6.6-4.9-9.9c-1.6-3.3-3.2-6.6-4.7-10c-1.5-3.3-3-6.7-4.4-10.1c-1.4-3.4-2.8-6.8-4.2-10.2
	c-1.4-3.4-2.7-6.9-3.9-10.3c-1.3-3.5-2.5-6.9-3.7-10.4c-1.2-3.5-2.3-7-3.4-10.5c-1.1-3.5-2.2-7-3.2-10.6c-1-3.5-2-7.1-2.9-10.6
	c-0.9-3.6-1.8-7.1-2.7-10.7c-0.8-3.6-1.6-7.2-2.4-10.8c-0.8-3.6-1.5-7.2-2.1-10.8c-0.7-3.6-1.3-7.2-1.9-10.9
	c-0.6-3.6-1.1-7.3-1.6-10.9c-0.5-3.6-0.9-7.3-1.3-11c-0.3-2.9-0.6-5.8-0.9-8.7c-0.3-2.9-0.5-5.8-0.7-8.7c-0.2-2.9-0.4-5.8-0.5-8.7
	c-0.1-2.9-0.3-5.8-0.3-8.7c-0.1-2.9-0.1-5.8-0.2-8.7c0-2.9,0-5.8,0-8.7c0-2.9,0.1-5.8,0.2-8.7c0.1-2.9,0.2-5.8,0.4-8.7
	c0.1-2.9,0.3-5.8,0.5-8.7c0.2-2.9,0.4-5.8,0.7-8.7c0.3-2.9,0.6-5.8,0.9-8.7c0.3-2.9,0.7-5.8,1.1-8.7c0.4-2.9,0.8-5.8,1.2-8.7
	c0.4-2.9,0.9-5.8,1.4-8.6c0.5-2.9,1-5.7,1.6-8.6c0.6-2.9,1.1-5.7,1.7-8.6c0.6-2.8,1.2-5.7,1.9-8.5c0.7-2.8,1.4-5.7,2.1-8.5
	c0.7-2.8,1.5-5.6,2.2-8.4c0.8-2.8,1.6-5.6,2.4-8.4c0.8-2.8,1.7-5.6,2.6-8.4c0.9-2.8,1.8-5.5,2.7-8.3c0.9-2.8,1.9-5.5,2.9-8.2
	c1-2.7,2-5.5,3.1-8.2c1-2.7,2.1-5.4,3.2-8.1c1.1-2.7,2.2-5.4,3.4-8.1c1.2-2.7,2.3-5.3,3.5-8c1.2-2.7,2.4-5.3,3.7-7.9
	c1.3-2.6,2.5-5.2,3.9-7.8c1.3-2.6,2.7-5.2,4-7.8c1.4-2.6,2.8-5.1,4.2-7.7c1.4-2.5,2.9-5.1,4.3-7.6c7.7-13.1,16.2-27.6,25.6-39.6
	c0.3-0.4,0.7-0.8,1-1.2c-3-5.6-5.1-18.7-4.7-25.2c0.8-12.2,13.5-23.5,23.6-29.2c5-2.8,11.2-5.2,15.5-9c0.1-0.1,0.3-0.2,0.4-0.4
	c0.8-4.2,1.6-7.6,4.9-10.7c5.7-5.5,17.2-6,24.4-3.1c3.9,1.6,7.1,4.5,11.6,4.4c5.5-0.1,10.4-2.4,15.7-3.1c4.7-0.6,9.4-0.8,14.1-1.4
	c8-1.1,15.9-2.5,23.9-3.4c4.5-0.5,9.2-0.4,13.7-1.1c1-0.2,3.2-0.4,3.8-1.2c3.5-4.4,8.8-28.9,10.9-36.4c1.8-6.5,4.1-12.9,6.1-19.3
	c8.5-27.4,17.9-53.7,33.2-78.1c3.6-5.7,7.3-11.5,11.9-16.3l0.7-0.7C360.2,49.2,365,43,371.9,38.6z"/>
<path class="st1" d="M424.1,431.1c2.7,0.1,6.7-0.1,8.9,1.5l-0.1,1.5c-0.8,0.2-1.5,0.5-2.4,0.6C428.1,434.7,425.5,432.8,424.1,431.1z
	"/>
<path class="st1" d="M603.6,431.2c1-0.2,0.4-0.2,1.6,0.2c-0.3,1-0.5,1.3-1.3,2c-1.5,1.3-2.6,1.5-4.5,1.3c-1.3-0.7-2.3-1.1-3.1-2.3
	l0.3-0.6C598.9,431.4,601.3,431.4,603.6,431.2z"/>
<path class="st2" d="M633.4,54.5c2.8,1.3,6.5,4.8,8.1,7.4c-4-1.2-7.5-3.6-11.5-4.6c0.3-0.7,0.5-1.3,0.5-2.1c0-0.8-0.1-0.2,0.1-1
	l1.7,0.9L633.4,54.5z"/>
<path class="st2" d="M632.5,464.4c-6.2-2-13.2-6.2-18.4-10.2c5.4,1.3,11,2.7,16.3,4.5l-0.4,1.1C631.2,461.4,632.3,462.3,632.5,464.4
	z"/>
<path class="st1" d="M660,425.1l0.4,0.6c-0.1,0.8-0.2,1.4-0.5,2.1c-1.3,2.7-3.6,5.2-6.5,6c-2.1,0.6-3.9-0.3-5.7-1.3
	c-1.2-1.1-2.1-2.2-2.1-3.8C647.6,426.5,656.6,426,660,425.1z"/>
<path class="st1" d="M369.6,425c5.2,1.2,10.7,1.8,16,2.6c-1,1.6-2.1,3.1-3.2,4.7c-0.9,0.9-1.9,1.5-3.1,1.8c-2.1,0.4-4.1-0.3-5.8-1.6
	C371.1,430.5,370,428,369.6,425z"/>
<path class="st3" d="M396.2,489.3c6.4-8,13.2-17.6,21.7-23.2c-2.1,7.1-8.6,15.6-11.5,23.5C403,489.4,399.7,489.2,396.2,489.3z"/>
<path class="st4" d="M251,285.7c-1.3-1.7-1.8-5-1.8-7.1c0-2.8,1.4-5.1,3.4-7.1c6.2-6.1,17.2-7.3,25.5-7.4c0.1,1.8,0.2,3.6,0.3,5.4
	c-4.3-1.6-14.3,0.3-18.4,2.1c-3.6,1.6-6.4,4.3-7.8,8C251.4,281.4,251.2,283.6,251,285.7z"/>
<path class="st4" d="M737.9,269c0-1.5-0.2-3.3,0.6-4.7c5.8-1.6,15.3,1,20.5,3.8c3.4,1.8,6.4,4.7,7.4,8.5c0.8,2.9,0.2,6.8-1.4,9.4
	c-0.1-4.1-1-8-3.9-11.1C755.5,268.9,745.6,269.1,737.9,269z"/>
<path class="st3" d="M686.4,854.3c2.3-1.7,5.1-2.5,7.7-3.8c-15.9,24.6-39.5,40.7-68.1,46.9c-2.6,0.6-5.8,1.3-8.2,0
	c2-0.5,4-1.1,5.9-1.7c2-0.6,3.9-1.2,5.8-1.9s3.8-1.4,5.7-2.2c1.9-0.8,3.8-1.6,5.6-2.4c1.9-0.8,3.7-1.7,5.5-2.6
	c1.8-0.9,3.6-1.9,5.4-2.9c1.8-1,3.5-2,5.3-3.1c1.7-1.1,3.5-2.2,5.2-3.3C666.3,874.6,685.7,858.4,686.4,854.3z"/>
<path class="st3" d="M292.5,843.5c3,1,6.3,1.8,9.1,3.3l-0.2,0.8c20.1,30.7,58.2,43.4,92.3,50.9c-8.3,0-16.4-1.2-24.5-3
	C337.3,888.2,310.1,871.5,292.5,843.5z"/>
<path class="st1" d="M275.8,609c4.7-15.6,11.8-31,20.1-45.1c11.8-20.1,23.6-32.5,46.9-38.5c-1.2,2.4-2.6,4.7-3.9,7
	c-6.2,2.6-12.4,5.2-17.9,9.2c-13.5,9.8-25.8,30.1-32.9,45.3C284.5,591.8,279.8,606.4,275.8,609z"/>
<path class="st1" d="M685.6,524.8c7.6,2.7,15.3,5.3,22.3,9.5c15.7,9.3,26.1,28.4,33.6,44.5c4.3,9.1,8.3,18.7,11.2,28.3l-0.5,0.5
	c-3.3-2.6-6.2-12.9-8.9-17c-0.1-0.2-0.2-0.5-0.3-0.7c-6.8-15.5-21.4-39.1-35.2-48.6c-5.5-3.8-11.4-6-17.6-8.1
	C688.5,530.4,686.8,527.8,685.6,524.8z"/>
<path class="st1" d="M333.7,567.6c3.5-10.7,8-20.9,14.1-30.4c10.1-15.7,25.3-32,44.3-36c16-3.4,34.1,2.1,47.5,11
	c-0.4,0.2-0.9,0.4-1.3,0.5c-1.8,0.1-6.6-2.5-8.5-3.2c-14.8-5.6-31.4-6.8-46.1,0c-18.2,8.4-32.4,28.6-42,45.8c-2,3.5-4.3,10.3-7.2,13
	C334.2,568.1,333.9,567.9,333.7,567.6z"/>
<path class="st1" d="M253.2,644.1c0.9,3.2-6.1,16.1-7.3,20.4c-4.6,15.5-7.7,31.5-7.2,47.7c0.4,15.4,3.1,32.3,8.6,46.7
	c2,5,6.1,11.6,7.3,16.5c0.2,0.8,0.1,0.5-0.2,1.4c-9.7-13.8-16.2-30.4-19.4-46.9C229.2,699.6,235.9,669.6,253.2,644.1z"/>
<path class="st1" d="M578.5,519.8c14.2-12,33.3-20.6,52.3-19.2c17.3,1.4,31.7,12.4,42.5,25.3c9.4,11.2,16,23.6,20.4,37.5l-0.6,0.3
	c-2-1.1-7.9-12.7-9.6-15.5c-20.2-32.5-49.7-55-88.2-36.6c-2.5,1.2-13.6,8.6-15.3,8.5C579.6,520.1,579.1,519.9,578.5,519.8z"/>
<path class="st5" d="M567.5,140.4c8.1-9.5,18.3-18.2,31.3-19.3c14.1-1.2,27.8,7.4,38,16.3c23.2,20.1,39.5,48.6,51.3,76.7
	c2,4.6,5.5,11,5.9,16c0.1,0.8-0.4,1.3-0.8,1.9c-1.1-0.2-1-0.2-1.8-0.9c0-0.2,0-0.3-0.1-0.5c-1.5-6.4-5.5-13.2-8.3-19.1
	c-13.6-28.9-31.8-60.9-59.3-78.6c-16.1-10.3-32.8-11.9-47.8,1.4c-2,1.7-5.8,6.7-8.2,7.2L567.5,140.4z"/>
<path class="st6" d="M288.1,586.9c7.1-15.1,19.4-35.5,32.9-45.3c5.5-4,11.6-6.6,17.9-9.2c-3.8,10.3-6.5,20.3-8.3,31.1
	c-10.8-0.7-20,4.3-27.9,11.2c-2.3,2-10.9,11.7-12.5,12.5c-0.4,0.2-0.8,0.1-1.3,0.2L288.1,586.9z"/>
<path class="st6" d="M690.2,533.1c6.2,2.2,12.1,4.4,17.6,8.1c13.8,9.6,28.4,33.1,35.2,48.6c0.1,0.2,0.2,0.5,0.3,0.7l0,2.1
	c-7.2-4.9-12.6-14.6-20.3-20.3c-5.3-4-17.5-8.6-24.1-7.6l-0.6,1.1c-0.7-3.1-0.9-6.4-1.6-9.6C695,548.4,692.8,540.8,690.2,533.1z"/>
<path class="st1" d="M438.4,845.6c12.6,5.5,34.5,15.9,47.8,15.4c4.8,1,10,1.2,14.9,1.6c29.3,2.1,56.9-4.2,83.4-16.7
	c2.6,0.2,5.3,1.1,7.9,1.7c-22.1,14.4-53.8,21.7-80.1,22.4c-23.9,0.7-45.7-3.4-67.2-14.4c-4.5-2.3-9.7-4.6-13.4-8.2L438.4,845.6z"/>
<path class="st1" d="M752.1,800.3c0.3-3.4,7.9-11.4,9.9-14.8c7.4-12.5,13.8-26.1,18.2-39.9c11.4-35.8,7.1-70-7.8-103.9
	c-2-4.5-4.8-8.7-6.9-13.1c-0.7-1.4-1-1.9-0.4-3.5c14.1,19.7,26.2,45.1,28.9,69.3c1.2,10.8,0.5,22.2-1.3,32.9
	C788.3,753.9,773.1,782.9,752.1,800.3z"/>
<path class="st1" d="M697.3,416.9c1.2,0,2.2,0.1,3.4,0.3l0.4,0.8c0,5.1-3.3,11.1-6,15.3c-6.3,9.8-17.2,16.4-28.6,18.9
	c-19,4.2-46.3-1.7-62.5-12.2l8.2-3.5c2.2,1.3,4.4,2.4,6.7,3.4c9.9,4.1,22,6.9,32.3,2.5c8.4-3.6,12.7-9.8,16-18
	c7.7-3,16.6-4.4,24.7-6.1c-2.1,9.1-3.9,15.3-9.7,22.8C690.3,434.3,694.3,426.8,697.3,416.9z"/>
<path class="st1" d="M255.7,450.6c0.9,2.9-3.8,9.9-5.3,12.8c-5.3,9.9-10.1,19.9-15,29.9c-7.9,15.9-16.2,32.2-20.8,49.4
	c-7.8,29.5-4.4,63.8,4.3,92.8c2,6.6,4.4,13.2,6.9,19.7l-3.5,8.8C215.9,651,211,637,207.6,623C190.3,552.6,221.2,507.7,255.7,450.6z"
	/>
<path class="st1" d="M326.7,416.8c0.6,0.1,2.4,0.1,2.8,0.3c1.4,0.8,3.6,7,4.5,8.8c3,6.1,6.8,10.9,11.8,15.5
	c-5.5-7.5-8.2-13.6-10-22.7c8.7,1.1,17.6,3.1,26.2,4.8c0.1,0.6,0.3,1.2,0.5,1.7c2.3,7.1,7.1,13,13.8,16.3c9.8,4.9,20.8,2.9,30.8-0.3
	c3.8-1.4,7.4-3.2,11.1-4.9c2.5,1.4,5.1,2.5,7.6,3.6c-9.5,5.7-20.5,9.4-31.3,11.4c-16.8,3.1-35.6,3.7-50.2-6.5
	C334.6,438.1,328.8,428.4,326.7,416.8z"/>
<path class="st1" d="M832.6,682.5l0.5,0.6c6.1,7,11.1,15.2,16.7,22.8c14,18.8,31,35.2,51.2,47.2c-3.5,5.1-7,11-11.5,15.2
	c-0.9-0.5-1.8-1-2.7-1.5c-0.9-0.5-1.8-1-2.7-1.6c-0.9-0.5-1.8-1.1-2.6-1.7c-0.9-0.6-1.7-1.2-2.6-1.8c-0.8-0.6-1.7-1.2-2.5-1.8
	c-0.8-0.6-1.6-1.3-2.4-1.9c-0.8-0.7-1.6-1.3-2.4-2c-0.8-0.7-1.5-1.4-2.3-2.1c-0.8-0.7-1.5-1.4-2.2-2.2c-0.7-0.7-1.4-1.5-2.1-2.3
	c-0.7-0.8-1.4-1.5-2.1-2.3c-0.7-0.8-1.3-1.6-2-2.4c-0.6-0.8-1.3-1.6-1.9-2.5c-0.6-0.8-1.2-1.7-1.8-2.5c-0.6-0.9-1.1-1.7-1.7-2.6
	c-0.6-0.9-1.1-1.8-1.6-2.7c-2.9-4.9-5.3-10-8.1-15c-1.1,0-2.1-0.2-3.2-0.4c-3.7-9.6-6.5-19.6-9.4-29.5l1.2-0.9
	C833.8,686.7,833.2,684.6,832.6,682.5z"/>
<path class="st7" d="M834.5,688.7c3.3,10.5,6.9,20.8,11.4,30.8c-1.1,0-2.1-0.2-3.2-0.4c-3.7-9.6-6.5-19.6-9.4-29.5L834.5,688.7z"/>
<path class="st6" d="M598.8,450c12.2,2.9,23.9,17.5,37,15.3c9,1.1,17.6,2.4,26.7,2.4c5.8,1.3,12.1,0.9,18.1,1.4l-2.2,0.6l-0.1,0.5
	c3.7,1,7.8-0.3,11.5,0.8c-9.9,5.6-20.6,7.8-31.8,8.6c7.8,7.9,16.6,12.9,26.7,17.4c5.7,2.5,11.5,4.9,16.6,8.6
	c5.4,3.9,9.5,9.2,13.8,14.1c2.7,3.1,6.2,6,6.9,10.3c-8.4-5.7-16.1-9.9-25.8-13.1c-6.4-2.1-13.5-3.8-19.4-7
	c-5.7-3.1-10.2-8.8-15.8-12.3c-4.9-3.1-11.6-4.2-15.8-8.3c-2.6-2.4-4.6-5.5-6.9-8.2c-3.4-4-7.2-7.7-11.4-11.1
	C617.8,462.8,607.4,457.3,598.8,450z"/>
<path class="st5" d="M438.4,845.6c37.1-11.1,76-12.4,114.1-6.4c8.2,1.1,24.5,3.7,31.9,6.7c-26.4,12.6-54,18.8-83.4,16.7
	c-4.9-0.4-10.1-0.6-14.9-1.6C472.9,861.5,450.9,851.1,438.4,845.6z"/>
<path class="st6" d="M552.5,839.2c8.2,1.1,24.5,3.7,31.9,6.7c-26.4,12.6-54,18.8-83.4,16.7c-4.9-0.4-10.1-0.6-14.9-1.6
	c5.2-1.6,12.4-0.1,18-0.6c19.9-1.8,49.3-6.1,67.5-14c-6.3-1-12.8-0.6-19.1-0.9c-9.3-0.4-19.2-1.5-28.4-3.1c6.3-1,13.1,0,19.5-0.6
	C546.6,841.6,550.6,841.4,552.5,839.2z"/>
<path class="st1" d="M750.4,397.4l1.1-0.2c0.1,0.1,14.4,28.3,16.6,32.1c29.4,50.5,66.1,96.3,66.7,157.6c0.4,36.9-12.5,71.8-30,103.7
	c-1.1-6.1-3.9-14.5-4.4-20.1c-3.6-10.5-8.3-20.2-13.5-30c13.2-9.8,25.1-25.5,31.7-40.5c1.8-4,2.4-9.3,4.6-13
	c0.1-0.2,0.2-0.4,0.3-0.6c0.9-6.3-0.1-13.5-0.7-19.8c-5.4-53.1-38.8-95.3-61.9-141.5C757,417.5,750.8,405.9,750.4,397.4z"/>
<path class="st6" d="M823.5,586.5c0.2,26.5-9.3,61.1-23.1,84.1c-3.6-10.5-8.3-20.2-13.5-30c13.2-9.8,25.1-25.5,31.7-40.5
	c1.8-4,2.4-9.3,4.6-13C823.3,586.9,823.4,586.7,823.5,586.5z"/>
<path class="st1" d="M275.6,216.8l0.9,0.5c-5.9,3.2-19.8,2.3-26.1,5.6c-0.2,0.1-0.3,0.3-0.5,0.4c-2.9,2.1-21.6,6.4-26.7,7.9
	c-14.8,4.5-53.2,19.7-57,35.7c-1.5,6.4,1,12.6,4.5,17.9C178,295.9,189.5,305,200,313c54.4,41.4,126.6,68.5,192.8,84.8
	c1.4,0.3,6.5,1,6.3,2.5c-0.9,0.4-1.7,0.9-2.6,1.3c-0.7,1.5-2,2.3-3.5,3c-1.4-1.3-36.2-8.6-41.3-9.9c-10.8-2.8-21.7-6-32.3-9.4
	c-41.6-13.5-83.2-31.7-118.4-58c-15.8-11.8-46.5-37.7-48.9-57.4c-0.7-5.5,1.4-10.4,4.7-14.7C176.9,229.2,244.3,220.7,275.6,216.8z"
	/>
<path class="st0" d="M396.4,401.5c-64.5-14.8-133.8-39.4-188.4-77.6c-14.4-10.1-45.9-33.1-48.6-51c-0.7-4.8,1-8.8,3.8-12.6
	c14.7-19.7,63.1-33.8,87.1-37.4c-0.2,0.1-0.3,0.3-0.5,0.4c-2.9,2.1-21.6,6.4-26.7,7.9c-14.8,4.5-53.2,19.7-57,35.7
	c-1.5,6.4,1,12.6,4.5,17.9C178,295.9,189.5,305,200,313c54.4,41.4,126.6,68.5,192.8,84.8c1.4,0.3,6.5,1,6.3,2.5
	C398.2,400.7,397.3,401.1,396.4,401.5z"/>
<path class="st1" d="M740.6,216.9c30.8,2.7,98.3,13.5,118.2,37.4c3.6,4.3,5.8,9.3,5.3,15.1c-1.7,18.1-28.3,41.6-42.2,52.6
	c-59.4,46.9-138.9,71.9-212.7,84.4c-16.4,2.8-33.6,5.5-50.2,6.3l0.3-1.6c6.4,0,13.3-1.3,19.7-2.2l0.4-2.3
	c12.6-1.5,25.1-4.3,37.6-6.9l3.8-1c2.1-0.3,4.2-1,6.2-1.5c35.3-9.1,69.6-20.3,103.1-35c30.2-13.3,107.4-52.9,118.9-84.2
	c1.7-4.6,2-9.5-0.2-14c-6.7-13.8-35.6-25.7-49.8-30.7c-9.4-3.3-19.2-5.5-28.6-8.9l0.1-0.4c-6.6-3.3-22.1-3.9-30.2-6.3L740.6,216.9z"
	/>
<path class="st0" d="M617.1,399.6l3.8-1l1.2,2.3l-4.9,1.1L617.1,399.6z"/>
<path class="st0" d="M620.8,398.6c2.1-0.3,4.2-1,6.2-1.5l0.9,2.5l-5.9,1.3L620.8,398.6z"/>
<path class="st7" d="M579.5,406.5c12.6-1.5,25.1-4.3,37.6-6.9l0,2.4c-12.6,2.7-25.3,4.9-38,6.8L579.5,406.5z"/>
<linearGradient id="SVGID_1_" gradientUnits="userSpaceOnUse" x1="714.5502" y1="746.4579" x2="752.799" y2="669.6426" gradientTransform="matrix(1 0 0 -1 0 1024)">
	<stop  offset="0" style="stop-color:#0E1315"/>
	<stop  offset="1" style="stop-color:#141927"/>
</linearGradient>
<path class="st8" d="M770.6,223.9c23.2,4.7,69.6,16.9,82.9,37.2c2.8,4.2,4,8.5,2.9,13.4c-4.7,20.7-48.8,50.7-66.5,61.2
	c-51.8,30.9-103.9,49-162,63.9l-0.9-2.5c35.3-9.1,69.6-20.3,103.1-35c30.2-13.3,107.4-52.9,118.9-84.2c1.7-4.6,2-9.5-0.2-14
	c-6.7-13.8-35.6-25.7-49.8-30.7c-9.4-3.3-19.2-5.5-28.6-8.9L770.6,223.9z"/>
<path class="st1" d="M303.1,216.4c11.1-47.7,29.3-125.3,64.5-160.4c8-8,17.7-13.4,29.1-14.4c40.6-3.8,53.6,38.2,88.9,40.7
	c28.9,2,69.2-25.7,96-37.7c10.5-4.7,22.4-9.3,34-9.2c17,0.1,32.3,13.5,43.6,24.9c28.4,28.9,45.6,79.2,54.8,117.8
	c2.7,11.2,5.6,23,5.5,34.6c-1.1,1.6-2.5,2.9-3.7,4.4c-0.2-2.4-0.7-4.8-1.2-7.2c-8.5-40.8-36.5-123.9-73.1-147.8
	c-1.6-2.6-5.3-6.1-8.1-7.4l-1.5-1.8l0.2-0.9c-7.7-5.2-19.4-5.6-28.3-4c-21.5,4-47.6,18.7-66.5,29.3c-9.5,5.3-19.2,11.4-29.7,14.7
	c-0.8,0.3-1.6,0.5-2.4,0.7c-0.8,0.2-1.6,0.4-2.4,0.5c-0.8,0.2-1.6,0.3-2.4,0.4c-0.8,0.1-1.6,0.2-2.5,0.3c-0.8,0.1-1.6,0.1-2.5,0.1
	c-0.8,0-1.6,0-2.5,0s-1.6-0.1-2.5-0.2c-0.8-0.1-1.6-0.2-2.4-0.3c-12.5-2.1-24.3-10-34.6-17c-17.8-12.1-25.6-23-49.4-18.4
	c-7.3,1.4-14.3,4.5-20.5,8.5c-2.8,1.8-17.1,14.3-18.4,14.5c-2.8,3.8-5.1,8.3-7.5,12.4c-22.1,39.1-34,89.2-44,132.9
	C309.3,223.6,305.9,220.8,303.1,216.4z"/>
<path class="st0" d="M365.3,80.9c1.4-2.4,3.1-4.6,4.9-6.8c8.6-10.8,19.7-20.3,34-21.9c25.3-2.9,35.7,9.3,53.8,23.5
	c8.3,6.6,18,13,28.8,13.9c17.5,1.4,36.1-11.8,50.9-19.7c18.5-9.9,45.2-24.9,66.1-27.3c18.5-2.1,32.3,8.2,46,19.1
	c-6.2-2.6-11.6-6.9-17.7-9.9c-7.7-5.2-19.4-5.6-28.3-4c-21.5,4-47.6,18.7-66.5,29.3c-9.5,5.3-19.2,11.4-29.7,14.7
	c-0.8,0.3-1.6,0.5-2.4,0.7c-0.8,0.2-1.6,0.4-2.4,0.5c-0.8,0.2-1.6,0.3-2.4,0.4c-0.8,0.1-1.6,0.2-2.5,0.3c-0.8,0.1-1.6,0.1-2.5,0.1
	c-0.8,0-1.6,0-2.5,0s-1.6-0.1-2.5-0.2c-0.8-0.1-1.6-0.2-2.4-0.3c-12.5-2.1-24.3-10-34.6-17c-17.8-12.1-25.6-23-49.4-18.4
	c-7.3,1.4-14.3,4.5-20.5,8.5C380.9,68.2,366.6,80.7,365.3,80.9z"/>
<path class="st6" d="M661.6,939.9c-13.1,6.3-28.6,10.1-42.6,13.7c-88.1,22.7-183.8,19.5-268.9-13.5c-17.3-6.7-34.4-14.5-50.5-24
	c-42.9-25.4-87.7-64.4-100.3-114.7c-4.7-18.8,1.4-55.7,11.5-72.5c0.2,3.9,0.5,7.7,0.9,11.6c3.4,28.3,15.8,55.5,36.2,75.6
	c5.3,5.2,12.9,9.2,17.5,14.8c3.8,4.7,6.3,10.8,9.9,15.7c10.1,13.7,22.8,23.7,36.1,34.1c-0.5,1.7-0.1,2.2,0.7,3.8
	c7.6,14.5,55,37.9,71.2,42.1c1,0.3,1.9,0.4,3,0.3l0.4-0.3l-4.4-3.8c9.5,2.7,18.7,6.9,28,10.3c6.4,2.3,12.9,4.4,19.5,6.3
	c6.6,1.8,13.2,3.4,19.9,4.8c-4-2.6-7.9-5.3-11.6-8.3c19,4.5,38.3,8,57.9,7.7c-4.6-3.1-9.2-6.4-13.9-9.3c28,8.4,72.3,15.6,101.5,11.8
	c-3.8-1.3-7.6-2.5-11.5-3.6c18.7,1.5,37.4,2.4,56.2,0.7C636.2,942.4,655.2,938.3,661.6,939.9z"/>
<path class="st5" d="M705.9,440.2c2.8-3.8,6.1-7.1,8.8-11c4.2-6,8.6-17,14.4-21.2c5.8-4.2,14.6-5.6,20.5-10c0.2-0.2,0.5-0.4,0.7-0.6
	c0.4,8.5,6.6,20.1,10.4,27.8c23.1,46.2,56.6,88.4,61.9,141.5c0.6,6.3,1.6,13.5,0.7,19.8c-0.1,0.2-0.2,0.4-0.3,0.6
	c-2.2,3.7-2.8,9-4.6,13c-6.6,15.1-18.5,30.7-31.7,40.5c-3.6-6.6-7.6-12.8-12.2-18.8c-2.9-3.9-6.5-7.8-8.9-12.1
	c-3.9-7.2-6.3-15.5-9.2-23.1c-8-20.8-18.7-41-34.9-56.6c-0.7-4.3-4.1-7.2-6.9-10.3c-4.4-4.9-8.5-10.2-13.8-14.1
	c-5.1-3.7-10.9-6.1-16.6-8.6c-10.1-4.5-18.9-9.5-26.7-17.4c11.2-0.8,22-3,31.8-8.6c-3.6-1.1-7.7,0.1-11.5-0.8l0.1-0.5l2.2-0.6
	c-5.9-0.5-12.3,0-18.1-1.4c-9.1,0-17.7-1.3-26.7-2.4l-3.2-0.9c-0.2-2.1-1.3-3-2.5-4.6l0.4-1.1c0.9,0.2,1.9,0.4,2.8,0.6
	c2.3,0.5,4.7,1,7,1.3c2.4,0.4,4.7,0.7,7.1,0.9c2.4,0.2,4.8,0.4,7.1,0.4c2.4,0.1,4.8,0.1,7.2,0s4.8-0.2,7.1-0.4
	c2.4-0.2,4.7-0.5,7.1-0.9c2.4-0.4,4.7-0.8,7-1.3c2.3-0.5,4.6-1.1,6.9-1.8c4.7-1.3,9.7-2.7,13.8-5.4c0.1-0.8,0.6-1.2,1.1-1.8
	l-1.7-1.1c-5.3,2-10.9,3.9-16.4,5.1c12.2-6.3,24.8-14.7,33.1-25.8C714.8,432.1,711,436.8,705.9,440.2z"/>
<path class="st7" d="M741.6,490.8c1.5,0,2.6,0,3.8,0.9c0,1.4-0.3,1.8-1,3c-1.4,0.2-2,0.3-3.2-0.4
	C740.9,492.8,741.2,492.2,741.6,490.8z"/>
<path class="st7" d="M797.1,546.2c1.2,0,2,0.1,3.2,0.6c1.1,1.1,1,2.5,1.2,4c-1.5,0-2.4,0-3.8-0.7
	C796.9,548.8,797.1,547.7,797.1,546.2z"/>
<path class="st7" d="M703,449.4c6.6-2.9,12.4-7,18.4-11c-4.7,5.3-11.1,11.3-17.8,13.9c0.1-0.8,0.6-1.2,1.1-1.8L703,449.4z"/>
<path class="st0" d="M707.6,458c6.4-4.5,12.7-9.3,19.8-12.5c-9.4,6.7-18.2,18.3-29.4,21.8c-2.7,1.2-6,2.2-8.5,3.6
	c-3.6-1.1-7.7,0.1-11.5-0.8l0.1-0.5l2.2-0.6c4.9-0.3,10-2.2,14.7-3.7C699.5,463.3,704.1,461.3,707.6,458z"/>
<path class="st4" d="M680.5,469c4.9-0.3,10-2.2,14.7-3.7c-0.2,0.2-0.4,0.4-0.6,0.6c-1.4,1.3-3.2,0.8-4.5,2.3l0.6-0.2l0.3,0.2l-0.9,0
	l1.3,0.3l0.5-0.3c1.4-0.1,2.7-0.3,4-0.6c4.1-0.9-1.6,0.2,1.5-0.1c0.3,0,0.5-0.2,0.7-0.2c-2.7,1.2-6,2.2-8.5,3.6
	c-3.6-1.1-7.7,0.1-11.5-0.8l0.1-0.5L680.5,469z"/>
<path class="st2" d="M662.4,467.7c6.9-0.2,23.6-4.3,30.8-6.2c2-0.6,11.3-4.2,12.6-4.1c0.7,0,1.3,0.4,1.9,0.7
	c-3.6,3.3-8.1,5.3-12.5,7.4c-4.7,1.4-9.8,3.3-14.7,3.7C674.5,468.6,668.2,469,662.4,467.7z"/>
<linearGradient id="SVGID_2_" gradientUnits="userSpaceOnUse" x1="340.9334" y1="451.1021" x2="243.4177" y2="592.7902" gradientTransform="matrix(1 0 0 -1 0 1024)">
	<stop  offset="0" style="stop-color:#606482"/>
	<stop  offset="1" style="stop-color:#A5A8C1"/>
</linearGradient>
<path class="st9" d="M281.4,403.5c6.5,3.6,13.4,6,19.9,9.5c5.1,8,8.4,15.9,15,23.1c2.4,2.6,4.8,5.2,7.3,7.8
	c-3.2-1.2-6.5-3.1-9.7-3.9c-2.2-0.7-4.3-1.6-6.4-2.5c7.2,5,14.2,7.3,22,10.8c3.5,1.6,7,3.6,10.4,5.5c-7.6-1.2-15.1-2.2-22.2-5.4
	c-2.7-1.2-8.7-6.1-10.3-6.3c5.9,8.9,22.3,13.9,32.2,15.9c25.2,5,49.9,4.5,74.3-4.1c-7.7,5.2-16.6,8.7-24.1,14.1
	c13.9-3,25.3-12.8,38.3-18.2c-0.1,0.1-0.3,0.2-0.4,0.4c-8.6,7.9-19.6,12.9-28.5,20.9c-3,2.7-5.8,5.6-8.4,8.6
	c-3.1,3.7-5.8,8.1-9.9,10.8c-4.2,2.8-9.3,4.3-13.6,7.1c-5.9,3.9-11.2,9.9-17.5,13.1c-5,2.5-10.7,4-16,5.9
	c-15.6,5.4-27.9,12.6-38,25.9c-10,13.1-18.1,28.6-24,44c-2.7,7-4.3,15.7-8.3,22c-3,4.7-9.2,9-13.1,13c-9.8,10.1-17.5,21.4-24.3,33.7
	c-2.5-6.5-4.9-13-6.9-19.7c-8.8-29-12.1-63.3-4.3-92.8c4.5-17.2,12.9-33.5,20.8-49.4c5-10,9.7-20.1,15-29.9
	c1.5-2.8,6.1-9.9,5.3-12.8c1.6-5,9.8-17.5,12.7-22.8C272.9,419.8,276.8,411.4,281.4,403.5z"/>
<path class="st0" d="M283.2,500.2c1.3,0.2,2.3,0.2,3.3,1.1c0,1.6-0.5,1.9-1.5,3.2c-1.5,0-1.9-0.2-2.9-1.1
	C282.2,501.7,282.4,501.6,283.2,500.2z"/>
<path class="st2" d="M313.8,440l0-0.8c-1.2-1.7-3.7-2.9-5.3-4.3c-1.1-1-2.4-2-2.5-3.5c2.1,0.9,3.3,3,5.2,4.1
	c1.5,0.8,2.6,1.7,4.3,1.7l0.8-1.1c2.4,2.6,4.8,5.2,7.3,7.8C320.3,442.7,317,440.9,313.8,440z"/>
<path class="st7" d="M331.4,465.7c7.6,1.8,15.3,3,23,3.9c-5.3,0.5-9.8,0.5-15.1-0.1c-2.3-0.3-5-0.9-7.3-0.9l-1.2-2L331.4,465.7z"/>
<path class="st0" d="M298.6,445.7c3.6,2,6.8,4.6,10.1,7.1c7.2,5.4,14.1,9.9,22.7,12.9l-0.6,1l1.2,2
	C318.3,467,307.5,455.1,298.6,445.7z"/>
<path class="st5" d="M832,684.7l1.3,4.9c2.9,9.9,5.7,19.9,9.4,29.5c7.6,21.1,21.6,44.8,42.4,55c-49.7,59.8-108,112.1-178.1,146.7
	c-14.7,7.2-29.7,14.1-45.3,19.1c-6.4-1.6-25.5,2.4-33.3,3.1c-18.7,1.7-37.5,0.8-56.2-0.7c3.8,1.2,7.7,2.4,11.5,3.6
	c-29.2,3.9-73.5-3.3-101.5-11.8c4.8,2.9,9.3,6.2,13.9,9.3c-19.6,0.3-38.9-3.3-57.9-7.7c3.8,3,7.6,5.7,11.6,8.3
	c-6.7-1.4-13.4-3-19.9-4.8c-6.6-1.8-13.1-3.9-19.5-6.3c-9.3-3.4-18.5-7.6-28-10.3l4.4,3.8l-0.4,0.3c-1.1,0.1-1.9,0-3-0.3
	c-16.2-4.2-63.6-27.6-71.2-42.1c-0.8-1.6-1.1-2.1-0.7-3.8c8.8,5.6,17.6,10.6,27.5,14.3c31.7,11.9,74,13.7,107.1,6.8
	c-6.4-0.5-12.8-0.2-19.2-0.4c-11.1-0.3-22.2-1.3-33.3-2.8c-34.1-7.5-72.2-20.3-92.3-50.9l0.2-0.8c23.6,9,50.6,11.9,75.8,10.7
	c7.8-0.4,16.9-3.1,24.5-2.1c5.3,0.7,10.9,3,15.9,4.7c7.5,2.5,15.2,4.4,22.6,7.2c5.9,2.2,11.5,5.2,17.4,7.5c41.6,16.1,90.2,9,130-8.7
	c4.2-1.9,8.3-3.9,12.4-5.9c30.7,7.2,56.5,5.4,86.2-5.7c-0.8,4.1-20.1,20.3-24.1,23c-1.7,1.1-3.4,2.3-5.2,3.3
	c-1.7,1.1-3.5,2.1-5.3,3.1c-1.8,1-3.6,2-5.4,2.9c-1.8,0.9-3.7,1.8-5.5,2.6c-1.9,0.8-3.7,1.6-5.6,2.4c-1.9,0.8-3.8,1.5-5.7,2.2
	s-3.9,1.3-5.8,1.9c-2,0.6-3.9,1.1-5.9,1.7c-8.2,3.2-24,3.3-33.3,3.9c43.8,6.8,76.8-0.9,109.9-31.2c6.5-6,12.3-16,18.1-20.6
	c4.1-3.2,9.8-5,14.3-7.8c9.5-5.9,15.9-15,23.9-22.5c3.8-3.6,8.4-6.1,12.1-9.8c18.9-18.9,32.6-44,39.2-69.8c1.8-7,2.4-14.3,4.1-21.3
	l0.1-0.6C816.3,707.5,824.5,697,832,684.7z"/>
<path class="st6" d="M727.7,215.6c3.9,0.2,9.2,0,12.9,1.3l-0.3,0.7c8.1,2.4,23.6,3,30.2,6.3l-0.1,0.4c9.4,3.3,19.2,5.6,28.6,8.9
	c14.2,5,43.1,16.9,49.8,30.7c2.2,4.5,1.9,9.4,0.2,14c-11.5,31.3-88.7,70.9-118.9,84.2c-33.5,14.7-67.7,25.9-103.1,35
	c-2,0.5-4.2,1.2-6.2,1.5l-3.8,1c-12.4,2.6-25,5.4-37.6,6.9l-0.4,2.3c-6.4,0.9-13.3,2.2-19.7,2.2l-0.3,1.6c-6.6,1.9-19,2-25.9,1.9
	c-9.4,1.5-20.4,0.7-30,0.6c-34.3-0.5-72-1.6-105.6-8.6c-1.9-0.4-3.5-0.4-4.6-2.1c1.5-0.7,2.8-1.5,3.5-3c0.9-0.4,1.7-0.8,2.6-1.3
	c0.2-1.5-4.8-2.1-6.3-2.5C326.6,381.5,254.4,354.4,200,313c-10.5-8-21.9-17.1-29.3-28.2c-3.5-5.3-6-11.5-4.5-17.9
	c3.7-16,42.2-31.2,57-35.7c5.1-1.5,23.7-5.8,26.7-7.9c0.2-0.1,0.3-0.3,0.5-0.4c6.3-3.3,20.2-2.4,26.1-5.6l-0.9-0.5
	c4-1,8.7-0.9,12.8-1.1c-3,11.9-6.6,23.7-8.9,35.7c-11.8,3.4-26.1,7-32.5,18.7c-2.4,4.3-3.1,9.4-1.7,14.1c1.9,6.2,7,11,11.8,15
	c-2.7-3.9-4.6-7.9-5.9-12.5c-0.2-0.7-0.1-0.5-0.4-0.9c0.3-2,0.4-4.3,1.1-6.2c1.4-3.7,4.2-6.4,7.8-8c4.1-1.8,14.1-3.7,18.4-2.1
	c0.7,6.8,4.2,13.4,8.2,18.8c27.8,37.5,107,59.3,151.2,66.1c8.7,1.3,17.6,2.9,26.3,3.8c63.5,6.2,132.6-1.6,192.4-24
	c19-7.1,38-15.7,54.4-27.8c12.7-9.3,24.6-21.2,27.1-37.4c7.7,0,17.6-0.1,23.3,5.9c2.9,3.1,3.9,7,3.9,11.1c-2.1,4.2-3,8.4-5.7,12.5
	c4.8-3.9,9.8-8.7,11.5-14.8c1.3-4.7,0.5-9.6-1.8-13.8c-6.4-11.6-20.5-15.2-32.3-18.6C734.1,239.3,730.7,227.5,727.7,215.6z"/>
<path class="st0" d="M524.5,413.6c-2-0.1-4.1-0.3-6.1-0.5l-0.6,0.5l0-0.7l-0.8,0c11.7-1.1,23.4-1.7,35.1-2.8
	c9.1-0.9,18.3-2.2,27.4-3.5l-0.4,2.3c-6.4,0.9-13.3,2.2-19.7,2.2l-0.3,1.6c-6.6,1.9-19,2-25.9,1.9
	C530.5,414.4,526.7,415,524.5,413.6z"/>
<path class="st5" d="M524.5,413.6c11.6-0.5,23.2-1.9,34.9-2.5l-0.3,1.6c-6.6,1.9-19,2-25.9,1.9C530.5,414.4,526.7,415,524.5,413.6z"
	/>
<path class="st6" d="M365.3,80.9c1.3-0.2,15.6-12.6,18.4-14.5c6.2-4,13.2-7.1,20.5-8.5c23.8-4.5,31.6,6.4,49.4,18.4
	c10.3,7,22.1,14.9,34.6,17c0.8,0.1,1.6,0.2,2.4,0.3c0.8,0.1,1.6,0.1,2.5,0.2s1.6,0,2.5,0c0.8,0,1.6-0.1,2.5-0.1
	c0.8-0.1,1.6-0.1,2.5-0.3c0.8-0.1,1.6-0.2,2.4-0.4c0.8-0.2,1.6-0.3,2.4-0.5c0.8-0.2,1.6-0.4,2.4-0.7c10.5-3.3,20.1-9.4,29.7-14.7
	c19-10.6,45-25.3,66.5-29.3c8.9-1.7,20.6-1.3,28.3,4l-0.2,0.9l1.5,1.8l-1.2,0.5l-1.7-0.9c-0.2,0.8-0.1,0.2-0.1,1
	c0,0.8-0.2,1.4-0.5,2.1c-12.4-3.2-23.4-1.9-34.5,4.7c-29.4,17.4-47.8,57.1-55.8,89.3c-4.1,16.5-4.6,32.9-4.2,49.9
	c8.2-19.5,12.8-35.1,25.5-52.8c1.8-2.6,4.2-6,6.6-8l0.4,1c2.3-0.5,6.2-5.4,8.2-7.2c15-13.3,31.7-11.7,47.8-1.4
	c27.5,17.7,45.7,49.7,59.3,78.6c2.8,6,6.8,12.8,8.3,19.1c0,0.2,0.1,0.3,0.1,0.5c-2.3,0.4-16,8.5-19.9,10.1
	c-15,6.3-31.3,11.8-47.1,15.6c-83.1,20.1-168.5,20.6-250.5-5c-20.3-6.4-42-14.4-60.2-25.6c10-43.7,21.9-93.8,44-132.9
	C360.1,89.2,362.4,84.7,365.3,80.9z"/>
<path class="st10" d="M877.8,267.4c0.7,6.2,0.6,15.8,2.9,21.2c1.8,4.3,5.2,8.4,7.9,12.3c4,5.7,7.9,11.5,11.6,17.4
	c5.6,9.2,10.9,18.6,15.9,28.1c5,9.6,9.6,19.3,13.9,29.2c2,4.6,3.9,9.3,5.7,14c1.8,4.7,3.6,9.4,5.3,14.1c1.7,4.7,3.3,9.5,4.8,14.3
	c1.5,4.8,2.9,9.6,4.3,14.5c1.3,4.8,2.6,9.7,3.8,14.6c1.2,4.9,2.3,9.8,3.3,14.7c1,4.9,1.9,9.9,2.8,14.8c0.8,5,1.6,9.9,2.3,14.9
	c0.7,5,1.3,10,1.8,15c0.5,5,0.9,10,1.3,15c0.3,5,0.6,10,0.8,15.1c0.2,5,0.3,10.1,0.3,15.1c0,5-0.1,10.1-0.3,15.1
	c-0.2,5-0.4,10.1-0.8,15.1c-0.3,5-0.8,10-1.3,15c-0.5,5-1.1,10-1.8,15c-0.7,5-1.4,10-2.3,14.9c-0.9,5-1.8,9.9-2.8,14.8
	c-1,4.9-2.1,9.8-3.3,14.7c-1.2,4.9-2.5,9.8-3.8,14.6c-1.4,4.8-2.8,9.7-4.3,14.5c-1.5,4.8-3.1,9.6-4.8,14.3
	c-1.7,4.7-3.4,9.5-5.3,14.1c-1.8,4.7-3.8,9.3-5.7,14c-2,4.6-4.1,9.2-6.2,13.8c-2.2,4.5-4.4,9.1-6.7,13.5c-2.3,4.5-4.7,8.9-7.1,13.3
	c-2.5,4.4-5,8.7-7.6,13.1c-2.6,4.3-5.3,8.6-8,12.8c-2.7,4.2-5.6,8.4-8.5,12.5c-2.9,4.1-5.8,8.2-8.9,12.2c-3,4-6.1,8-9.3,11.9
	C794.4,922,684,984.9,567.5,997.3c-6.8,0.7-13.4,2.7-20,3.3c-10.5,0.8-21.6,0.3-32.1,0.3c-13,0.1-28.2,0.6-41-0.3
	c-2.3-0.2-3.9-1.3-6-1.8c-4.7-1-10-1.2-14.8-1.9c-2.6-0.3-5.2-0.7-7.8-1.1c-2.6-0.4-5.2-0.8-7.7-1.2c-2.6-0.4-5.2-0.9-7.7-1.3
	c-2.6-0.5-5.1-0.9-7.7-1.5c-2.6-0.5-5.1-1-7.7-1.6c-2.6-0.5-5.1-1.1-7.6-1.7s-5.1-1.2-7.6-1.8c-2.5-0.6-5.1-1.3-7.6-2
	c-2.5-0.7-5-1.4-7.5-2.1c-2.5-0.7-5-1.5-7.5-2.2c-2.5-0.8-5-1.6-7.5-2.4c-2.5-0.8-5-1.6-7.4-2.5c-2.5-0.9-4.9-1.7-7.4-2.6
	c-2.5-0.9-4.9-1.8-7.3-2.8s-4.9-1.9-7.3-2.9c-2.4-1-4.8-2-7.2-3c-2.4-1-4.8-2.1-7.2-3.1c-2.4-1.1-4.8-2.1-7.1-3.2
	c-2.4-1.1-4.7-2.2-7.1-3.4c-2.3-1.1-4.7-2.3-7-3.5c-2.3-1.2-4.6-2.4-7-3.6c-2.3-1.2-4.6-2.5-6.9-3.7c-2.3-1.3-4.6-2.5-6.8-3.9
	c-2.3-1.3-4.5-2.6-6.8-4c-2.2-1.3-4.5-2.7-6.7-4.1c-2.2-1.4-4.4-2.8-6.6-4.2c-2.2-1.4-4.4-2.9-6.5-4.3c-2.2-1.5-4.3-2.9-6.5-4.4
	c-2.1-1.5-4.3-3-6.4-4.5c-2.1-1.5-4.2-3.1-6.3-4.6c-2.1-1.6-4.2-3.2-6.2-4.8c-2.1-1.6-4.1-3.2-6.1-4.9c-2.9-2.3-5.7-4.6-8.5-7
	c-2.8-2.4-5.6-4.8-8.3-7.2c-2.8-2.4-5.5-4.9-8.2-7.4c-2.7-2.5-5.4-5-8-7.6c-2.6-2.6-5.2-5.2-7.8-7.8c-2.6-2.6-5.1-5.3-7.6-8
	s-5-5.4-7.4-8.2c-2.4-2.8-4.8-5.5-7.2-8.4c-2.4-2.8-4.7-5.7-7-8.5c-2.3-2.9-4.6-5.8-6.8-8.7c-2.2-2.9-4.4-5.9-6.6-8.9
	c-2.1-3-4.3-6-6.3-9c-2.1-3-4.1-6.1-6.1-9.2c-2-3.1-4-6.2-5.9-9.3c-1.9-3.1-3.8-6.3-5.7-9.5c-1.8-3.2-3.7-6.4-5.4-9.6
	c-1.8-3.2-3.5-6.5-5.2-9.7c-1.7-3.3-3.3-6.6-4.9-9.9c-1.6-3.3-3.2-6.6-4.7-10c-1.5-3.3-3-6.7-4.4-10.1c-1.4-3.4-2.8-6.8-4.2-10.2
	c-1.4-3.4-2.7-6.9-3.9-10.3c-1.3-3.5-2.5-6.9-3.7-10.4c-1.2-3.5-2.3-7-3.4-10.5c-1.1-3.5-2.2-7-3.2-10.6c-1-3.5-2-7.1-2.9-10.6
	c-0.9-3.6-1.8-7.1-2.7-10.7c-0.8-3.6-1.6-7.2-2.4-10.8c-0.8-3.6-1.5-7.2-2.1-10.8c-0.7-3.6-1.3-7.2-1.9-10.9
	c-0.6-3.6-1.1-7.3-1.6-10.9c-0.5-3.6-0.9-7.3-1.3-11c-0.3-2.9-0.6-5.8-0.9-8.7c-0.3-2.9-0.5-5.8-0.7-8.7c-0.2-2.9-0.4-5.8-0.5-8.7
	c-0.1-2.9-0.3-5.8-0.3-8.7c-0.1-2.9-0.1-5.8-0.2-8.7c0-2.9,0-5.8,0-8.7c0-2.9,0.1-5.8,0.2-8.7c0.1-2.9,0.2-5.8,0.4-8.7
	c0.1-2.9,0.3-5.8,0.5-8.7c0.2-2.9,0.4-5.8,0.7-8.7c0.3-2.9,0.6-5.8,0.9-8.7c0.3-2.9,0.7-5.8,1.1-8.7c0.4-2.9,0.8-5.8,1.2-8.7
	c0.4-2.9,0.9-5.8,1.4-8.6c0.5-2.9,1-5.7,1.6-8.6c0.6-2.9,1.1-5.7,1.7-8.6c0.6-2.8,1.2-5.7,1.9-8.5c0.7-2.8,1.4-5.7,2.1-8.5
	c0.7-2.8,1.5-5.6,2.2-8.4c0.8-2.8,1.6-5.6,2.4-8.4c0.8-2.8,1.7-5.6,2.6-8.4c0.9-2.8,1.8-5.5,2.7-8.3c0.9-2.8,1.9-5.5,2.9-8.2
	c1-2.7,2-5.5,3.1-8.2c1-2.7,2.1-5.4,3.2-8.1c1.1-2.7,2.2-5.4,3.4-8.1c1.2-2.7,2.3-5.3,3.5-8c1.2-2.7,2.4-5.3,3.7-7.9
	c1.3-2.6,2.5-5.2,3.9-7.8c1.3-2.6,2.7-5.2,4-7.8c1.4-2.6,2.8-5.1,4.2-7.7c1.4-2.5,2.9-5.1,4.3-7.6c7.7-13.1,16.2-27.6,25.6-39.6
	c0.3-0.4,0.7-0.8,1-1.2c4,6.7,8.1,13.3,13.2,19.2c27.2,31.8,75.8,60.8,114.3,76.2c-5.5,11.3-7.8,22.9-12.2,34.6
	c-2.2,5.9-5.1,11.4-8.2,16.9c-9.6,17.2-21.5,33.1-31.9,49.9c-35,57-45.7,104.8-23.1,169.5c2.6,7.3,7.7,17.1,9,24.2
	c1.6,8.8-12,39.3-16.6,48.8c-3,6.7-11.9,25.3-16.8,29.7c-2.5,2.2-6.1,3.1-9,4.9c-6.8,4.2-14.4,10.8-19.9,16.5l-0.5,0.5
	c-2.4-4.9-4-9.6-5.3-15c13.6-11.4,41.1-22.2,50.8-36.6c2.6-8.3-0.8-18.9,0.2-27.6c1.1-9.6,6.3-18.3,9.7-27.3
	c-5-22-14.8-43.2-17.8-65.6c-6.2-46.4,11.9-89.3,36.9-127.3c10.1-15.3,21.5-30.2,30.1-46.5c8-15.2,10.9-32.3,16.7-48.3
	c-31.6-16.1-64.9-35.3-92.5-57.8c-7.9-6.5-15.2-13.4-22.5-20.5C102.7,363,76.7,437.8,70.3,509.6c-0.3,3-0.5,6-0.7,9
	c-0.2,3-0.3,6-0.5,9.1c-0.1,3-0.2,6-0.3,9.1c-0.1,3-0.1,6-0.1,9.1c0,3,0,6,0.1,9.1c0.1,3,0.2,6,0.3,9.1c0.1,3,0.3,6,0.5,9.1
	c0.2,3,0.4,6,0.7,9c0.2,3,0.5,6,0.8,9c0.3,3,0.7,6,1,9c0.4,3,0.8,6,1.2,9c0.4,3,0.9,6,1.4,9c0.5,3,1,6,1.6,8.9s1.1,5.9,1.8,8.9
	c0.6,3,1.3,5.9,2,8.9c0.7,2.9,1.4,5.9,2.1,8.8c0.7,2.9,1.5,5.9,2.3,8.8c0.8,2.9,1.6,5.8,2.5,8.7c0.9,2.9,1.8,5.8,2.7,8.7
	c0.9,2.9,1.9,5.7,2.9,8.6c1,2.9,2,5.7,3,8.5c1,2.8,2.1,5.7,3.2,8.5c1.1,2.8,2.2,5.6,3.4,8.4s2.3,5.6,3.6,8.3
	c1.2,2.8,2.5,5.5,3.7,8.3c1.3,2.7,2.6,5.5,3.9,8.2c1.3,2.7,2.7,5.4,4.1,8.1c1.4,2.7,2.8,5.4,4.2,8c1.4,2.7,2.9,5.3,4.4,7.9
	c1.5,2.6,3,5.2,4.6,7.8c1.5,2.6,3.1,5.2,4.7,7.7c1.6,2.6,3.2,5.1,4.9,7.6c13.8,21.4,29.9,41.6,46.3,61
	c11.2,13.3,24.4,26.4,37.7,37.6c4.2,3.6,8.8,6.7,13.1,10.2c12.3,9.9,24.4,19.5,37.7,28.2c3.7,2.4,7.5,4.8,11.3,7.1
	c3.8,2.3,7.7,4.5,11.5,6.7s7.8,4.3,11.7,6.4c3.9,2.1,7.9,4.1,11.9,6c4,1.9,8.1,3.8,12.1,5.6c4.1,1.8,8.2,3.6,12.3,5.2
	c4.1,1.7,8.3,3.3,12.4,4.8c4.2,1.6,8.4,3,12.6,4.5c4.2,1.4,8.5,2.8,12.7,4.1c4.3,1.3,8.5,2.5,12.8,3.7c4.3,1.2,8.6,2.2,12.9,3.3
	c4.3,1,8.7,2,13,2.9c4.4,0.9,8.7,1.7,13.1,2.5c4.4,0.8,8.8,1.4,13.2,2c4.4,0.6,8.8,1.2,13.3,1.6c4.4,0.5,8.9,0.9,13.3,1.2
	c3.6,0.3,7.3,0.5,10.9,0.7c3.7,0.2,7.3,0.3,11,0.4c3.7,0.1,7.3,0.1,11,0.1c3.7,0,7.3,0,11-0.1c3.7-0.1,7.3-0.2,11-0.4
	c3.7-0.2,7.3-0.4,10.9-0.7c3.6-0.3,7.3-0.6,10.9-0.9c3.6-0.4,7.3-0.7,10.9-1.2c3.6-0.4,7.3-0.9,10.9-1.5c3.6-0.5,7.2-1.1,10.8-1.7
	c3.6-0.6,7.2-1.3,10.8-2c3.6-0.7,7.2-1.5,10.7-2.2c3.6-0.8,7.1-1.6,10.7-2.5c3.5-0.9,7.1-1.8,10.6-2.8c3.5-1,7-2,10.5-3
	c3.5-1,7-2.1,10.5-3.3c3.5-1.1,6.9-2.3,10.4-3.5c3.4-1.2,6.9-2.5,10.3-3.8c3.4-1.3,6.8-2.6,10.2-4c3.4-1.4,6.8-2.8,10.1-4.3
	c3.3-1.5,6.7-3,10-4.5c3.3-1.5,6.6-3.1,9.9-4.8c3.3-1.6,6.5-3.3,9.8-5c3.2-1.7,6.4-3.5,9.6-5.2c3.2-1.8,6.4-3.6,9.5-5.5
	c3.1-1.9,6.3-3.8,9.4-5.7c3.1-1.9,6.2-3.9,9.2-5.9c3.1-2,6.1-4.1,9.1-6.2c3-2.1,6-4.2,8.9-6.4c2.9-2.2,5.9-4.4,8.8-6.6
	c2.9-2.2,5.8-4.5,8.6-6.8c2.8-2.3,5.7-4.6,8.4-7c5.2-4.4,10.3-8.9,15.2-13.4c5-4.6,9.9-9.3,14.6-14.1c4.8-4.8,9.5-9.7,14-14.7
	s9-10.1,13.4-15.3c4.3-5.2,8.6-10.5,12.7-15.9c4.1-5.4,8.1-10.9,12-16.4c3.9-5.6,7.6-11.2,11.2-16.9c3.6-5.7,7.1-11.5,10.5-17.4
	c2-3.5,8.6-13.4,8.6-16.9c0-1.4-0.1-2.6-1.1-3.5c-1.7,0.7-3.1,3.2-4.2,4.7c-6.1-4.4-12.5-8.7-17.4-14.6c-8.8-10.6-15-23.9-22-35.8
	c-7-11.8-17.8-26.1-22.1-38.9c4.8-18.9,9.2-38.4,9.7-58c1-45.3-22.2-90.3-46.5-127.2c-13.1-19.9-27.7-39.3-39-60.3
	c-5.1-9.4-8.6-19.6-12.5-29.4c10.5-5.6,20.1-12.2,30.2-18.4c9.5-5.8,19.2-11,28.5-17.1c8.7-5.7,16.8-12.4,24.6-19.3
	C858,310.4,876.3,290.8,877.8,267.4z"/>
<path class="st0" d="M873,301.8c0.6,0.3,0.5,0.2,1,0.7c3.2,3.7,5.9,8.2,8.6,12.2c5.2,7.6,10.2,15.3,14.9,23.2
	c4.7,7.9,9.1,16,13.2,24.2c49.1,98.4,57,208.2,27.9,313.9c-2.4,8.7-4.6,19.7-9.8,27.3c-4.5,6.6-18.6,17.7-20.4,20.9
	c-0.6,1-0.6,2.1-0.7,3.3c0,0.2,0,0.4,0,0.6c-10.8-11.8-16.3-20-24-33.9c-6.7-12.4-18.5-24.7-22.9-37.8c-4.5-13.3-0.2-28.8,1.8-42.2
	c0.9-6.3,1.5-12.5,1.6-18.8c0.5-21-4.7-42.1-11.9-61.8c-8.5-23.1-20.8-44.8-34.2-65.4c-13.1-20.1-39.5-53.6-44.8-75.4
	c-0.6-2.3-0.8-4.7-1-7.1c4.2-4.7,24.1-16.7,31-21.9c8.3-6.3,16.5-12.9,24.1-20c3.9-3.6,7.3-7.7,11.3-11.2
	C850.2,322.4,862.7,313.5,873,301.8z"/>
<path class="st5" d="M459.5,436c11.8-0.2,23.9,1.4,35.8,1.7c14.1,0.5,28.2,0.5,42.3,0.8c12.4-0.1,24.8-0.3,37.2-1.3
	c6.7,9.9,14.1,12.9,22.8,20.4c11.2,6.5,24.9,20.7,32.7,31c-23.6,2.8-42.8,10.3-57.9,29.4c-5,6.3-10.1,13.7-12.2,21.5
	c6.8-5.9,10.7-14.4,18.3-19.7c0.5,0.1,1.1,0.4,1.6,0.4c1.7,0,12.8-7.4,15.3-8.5c38.4-18.4,68,4.1,88.2,36.6
	c1.7,2.8,7.6,14.4,9.6,15.5l0.6-0.3c2.3,4.3,3.3,9.3,5.4,13.7l-0.9-11.2l0.6-1.1c6.6-1,18.8,3.7,24.1,7.6
	c7.7,5.7,13.1,15.4,20.3,20.3l0-2.1c2.7,4.1,5.7,14.4,8.9,17l0.5-0.5c0.7,1.7,1.4,3.5,2.4,5c2.4,3.7,8.9,9.1,10,12.9
	c-0.6,1.5-0.3,2,0.4,3.5c2.1,4.5,4.9,8.6,6.9,13.1c14.9,33.9,19.1,68.1,7.8,103.9c-4.4,13.8-10.8,27.4-18.2,39.9
	c-2,3.4-9.6,11.4-9.9,14.8c-3.3,4.2-13.3,11.1-17.9,14.1c-1.2,0.8-2.5,1.5-3.7,2.3c-1.3,0.7-2.5,1.5-3.8,2.2
	c-1.3,0.7-2.6,1.4-3.9,2.1c-1.3,0.7-2.6,1.3-3.9,1.9c-1.3,0.6-2.7,1.2-4,1.8c-1.3,0.6-2.7,1.1-4.1,1.7c-1.4,0.5-2.7,1.1-4.1,1.5
	c-1.4,0.5-2.8,1-4.2,1.4c-1.4,0.4-2.8,0.9-4.2,1.3c-1.4,0.4-2.8,0.8-4.2,1.1s-2.8,0.7-4.3,1c-1.4,0.3-2.9,0.6-4.3,0.9
	c-1.4,0.3-2.9,0.5-4.3,0.7c-1.4,0.2-2.9,0.4-4.4,0.6c-1.5,0.2-2.9,0.3-4.4,0.5c-1.5,0.1-2.9,0.2-4.4,0.3
	c-25.4,1.6-48.1-5.5-72.7-10.1c-24.4-4.7-49-7.9-73.9-8.2c-11.3-0.1-22.6,0.3-33.9,1.3c-11.3,0.9-22.5,2.4-33.7,4.4
	c-42.9,7.7-71,19.5-116.1,9.7c-35.2-7.6-63.7-25.3-83.4-55.9c0.3-0.9,0.4-0.7,0.2-1.4c-1.2-4.9-5.3-11.5-7.3-16.5
	c-5.6-14.4-8.2-31.3-8.6-46.7c-0.4-16.3,2.6-32.2,7.2-47.7c1.3-4.3,8.3-17.2,7.3-20.4c0.7-2.2,2.6-4.5,3.9-6.5
	c5.4-8.3,15.1-20.1,18.6-28.5c4-2.6,8.7-17.2,12.4-22.1l0.8,0.5c0.4-0.1,0.9,0,1.3-0.2c1.5-0.8,10.2-10.5,12.5-12.5
	c7.9-6.9,17.1-11.9,27.9-11.2c-0.5,4.6-0.6,9.1-0.5,13.8c1.2-3.1,2.1-6.9,3.6-9.7c0.2,0.3,0.5,0.4,0.8,0.6c2.9-2.7,5.2-9.4,7.2-13
	c9.6-17.1,23.8-37.3,42-45.8c14.7-6.8,31.3-5.6,46.1,0c2,0.7,6.7,3.3,8.5,3.2c0.5,0,0.9-0.3,1.3-0.5c12,5,20.1,18,27.8,27.7
	c-0.5-5.7-6-14.3-9.4-18.9c-12.8-17.5-30.2-28.1-51.5-31.4c2.9-7.9,9.4-16.4,11.5-23.5c5.3-4.9,10.4-11.1,16.4-15
	c3.3-2.2,7.2-3.6,10.8-5.3C450.8,443.2,455,440,459.5,436z"/>
<path class="st4" d="M607.6,618c1.6,0.7,6.5,2.4,7.2,3.8c-2.4,0.4-4.9,0.1-7.3-0.6c-0.6-1.1-1.6-2-2.5-2.9L607.6,618z"/>
<path class="st7" d="M715.6,629.2c1.6,0.2,2.9,0.3,4.1,1.4c1.9,1.8,1.7,4.7,1.6,7.2c-1.2-0.3-2.3-0.6-3.2-1.5
	C716,634.6,715.7,631.8,715.6,629.2z"/>
<path class="st7" d="M308.6,628.7c0.2,0.1,0.4,0.1,0.6,0.2c1.3,0.5,1.3,0.6,1.9,1.8c-0.1,2.9-1.8,4.6-3.7,6.6c-1.1,0.2-1,0.1-2-0.3
	c-0.2-0.5-0.3-0.6-0.4-1.3C304.8,633.2,306.9,630.4,308.6,628.7z"/>
<path class="st0" d="M670.3,714.3c0.9,0.7,0.8,0.9,1.3,1.9c-0.4,3.3-2.6,5.5-4.6,8c-0.2-0.2-0.5-0.3-0.7-0.5c-0.8-0.7-1-2-0.9-3
	C665.7,718,668.2,715.9,670.3,714.3z"/>
<path class="st7" d="M354.5,715.2c0.2,0,0.5,0,0.7,0c1.8,0.1,3.6,0.8,4.7,2.2c1.6,2,1.6,4.3,1.2,6.7c-0.7,0.1-1.1,0.1-1.7-0.4
	C357,722.2,355.2,717.9,354.5,715.2z"/>
<path class="st7" d="M720.8,722.9c0.7,0,1.4,0.1,2.1,0.2c0.4,0.5,0.8,0.6,0.8,1.3c-0.1,2.3-3.3,5-4.8,6.6c-1,0.4-0.4,0.3-1.6,0.2
	c-0.6-0.7-0.7-1.1-0.7-2C716.5,726.7,719.1,724.4,720.8,722.9z"/>
<path class="st7" d="M303.9,722.8c0.2,0,0.4,0,0.6,0.1c2.2,0.3,4.4,1.2,5.6,3.2c1.1,1.9,1,3.8,0.6,5.8c-1.7-0.4-2.7-1-4-2.3
	C304.8,727.7,303.9,725.5,303.9,722.8z"/>
<path class="st7" d="M439,759.7c1.8,0.1,3.5,0.1,5.1,1c2.5,1.5,3.2,3.8,3.8,6.5c-1.6,0.2-2.8,0.1-4.2-0.6
	C441,765.2,439.9,762.4,439,759.7z"/>
<path class="st0" d="M736.2,690.8c1,0.3,0.7,0.2,1.5,0.7c0.7,0.5,0.6,1,0.7,1.8c-0.9,3.1-3.1,5.1-5.5,7.2l-1-0.2
	c-0.5-0.7-0.9-0.8-0.8-1.7C731.3,695.3,733.7,692.7,736.2,690.8z"/>
<path class="st7" d="M426.5,673.8l0.9,0.5c0.5,1,0.8,1.4,0.4,2.6c-1.1,2.7-4.4,4.8-6.9,6.1l-0.8-0.5c-0.5-1.1-0.6-1.3-0.1-2.5
	C421,677.1,423.8,675,426.5,673.8z"/>
<path class="st7" d="M599,673.9c2.6,0.6,5,1.7,6.6,3.9c1.2,1.7,1.4,3.2,1.1,5.3c-2.7-1-5.6-2.3-7.2-4.9
	C598.6,676.7,598.6,675.6,599,673.9z"/>
<path class="st7" d="M288.2,691.4c0.3,0,0.6,0,0.9,0c1.9,0.1,3.6,1.2,4.7,2.7c1.6,2.1,1.8,4.6,1.5,7.1c-1.2-0.4-2.1-0.8-3.1-1.6
	C289.6,697.5,288.5,694.7,288.2,691.4z"/>
<path class="st7" d="M696.7,654.3l2,0.3l0.7,1.1c0.2,3.3-2.8,6.5-4.6,9.1l-1,0.4c-0.7-0.9-0.8-1.3-0.9-2.4
	C692.7,658.9,694.3,656.9,696.7,654.3z"/>
<path class="st0" d="M673.7,786.4c1.5,0.2,1.8,0.1,2.8,1.2l0,1.2c-1.5,2.8-4,4.3-6.8,5.8c-1.3,0-1.4,0.3-2.5-0.6
	c0-0.6,0-0.6,0.1-1.2C668.2,789.9,671.4,787.7,673.7,786.4z"/>
<path class="st7" d="M350.3,786.9c0.8,0,1.7,0,2.5,0.1c2,0.3,4.5,1.9,5.6,3.6c0.8,1.4,1.2,2.7,0.9,4.3c-0.3-0.1-0.6-0.1-0.8-0.2
	c-2.8-0.6-6.4-2.4-7.8-4.9C349.9,788.7,349.9,788.2,350.3,786.9z"/>
<path class="st0" d="M282.6,745.4c0.8,0.1,1.7,0.2,2.5,0.4c2.7,0.7,5.1,2.9,6.4,5.2c0.1,1.4,0.2,1.4-0.7,2.5
	c-1.2-0.3-2.3-0.6-3.5-1.2c-2.1-1-4.7-2.5-5.4-4.9C281.7,746.6,282.2,746.1,282.6,745.4z"/>
<path class="st0" d="M449.8,704c1.1,0.9,1.5,1.9,1.6,3.3c0.1,3.3-2.6,6.3-4.8,8.4l-1.2-0.9c-0.4-0.9-0.5-1.5-0.5-2.5
	C445,709.1,447.5,706,449.8,704z"/>
<path class="st0" d="M575.7,704.1c1.5,0.2,2.6,0.8,3.6,1.9c2.5,2.8,2.3,6.6,2.1,10.1c-1.3-0.7-2.5-1.4-3.5-2.6
	C575.6,710.7,575.3,707.7,575.7,704.1z"/>
<path class="st0" d="M742.8,745c1.3,0.4,1.5,0.3,2.2,1.5c-0.1,0.5-0.1,0.9-0.3,1.4c-1.3,2.7-5.1,4.5-7.8,5.6
	c-0.7-0.1-1.1-0.2-1.7-0.5c-0.2-1-0.3-0.9,0.2-1.9C736.8,748,739.8,745.9,742.8,745z"/>
<path class="st0" d="M326.4,654.7c0.1,0,0.2,0,0.3,0c0.6,0,1.2,0.1,1.9,0.2c1.6,0.3,2.9,1.4,3.7,2.7c1.7,2.5,1.4,5.8,0.8,8.6
	c-0.5-0.3-0.5-0.3-1-0.7c-0.4-0.3-0.8-0.7-1.2-1.1c-0.4-0.4-0.7-0.8-1-1.2c-0.3-0.4-0.6-0.8-0.9-1.3c-0.3-0.4-0.6-0.9-0.8-1.4
	s-0.5-0.9-0.7-1.4c-0.2-0.5-0.4-1-0.5-1.5c-0.2-0.5-0.3-1-0.4-1.5S326.5,655.3,326.4,654.7z"/>
<path class="st0" d="M686.3,683.8c0.1,0,0.2,0.1,0.3,0.1c0.7,0.6,0.9,0.7,1,1.7c0.7,3.8-2.5,7.6-4.6,10.5c-0.2-0.3-0.3-0.5-0.5-0.8
	c-1-1.6-1.4-4-0.9-5.9C682.3,686.6,683.8,685.2,686.3,683.8z"/>
<path class="st3" d="M465.6,560.3c3.9,8.7,5.8,17.4,4,26.8c0.2-2.6-0.7-4.1-1.7-6.3C468.6,573.9,465.2,567.2,465.6,560.3z"/>
<path class="st0" d="M339.2,684.1c0.7,0.1,1.4,0.3,2.1,0.5c1.5,0.6,2.8,2,3.3,3.6c1,2.8,0.4,5.4-0.8,8l-0.4,0.1
	c-0.2-0.2-0.5-0.3-0.7-0.6C340,693.1,338.8,687.7,339.2,684.1z"/>
<path class="st7" d="M427.8,738.6c2.1,0.3,3.5,0.8,4.9,2.4c2.6,2.8,2.8,6.6,2.6,10.2c-0.7-0.3-1.3-0.7-1.8-1.2
	C430,746.9,428.1,743.3,427.8,738.6z"/>
<path class="st0" d="M596.9,738.2l1.3,0.4c0.4,0.6,0.8,0.9,0.8,1.7c0.2,3.7-3.8,7.6-6.1,10.1l-0.4,0.2l-0.7-0.3
	c-0.2-1.2-0.3-2.2-0.2-3.5C592,743.1,594,740.6,596.9,738.2z"/>
<path class="st3" d="M467.8,580.8c1.1,2.2,2,3.8,1.7,6.3c-2.2,8.1-6.7,14.9-13.9,19.5c1.2-3.1,3-5.1,5.1-7.7
	C465.5,593.2,466.6,587.9,467.8,580.8z"/>
<path class="st3" d="M565.1,556c-3.5,18.2-6.6,23.7,0.2,41.9c-3.4-2.6-5.4-6.6-6.3-10.8C557.1,577.4,559.8,564.2,565.1,556z"/>
<path class="st3" d="M674.2,554.4c2.9,13.4,1.7,27.5-5.9,39.4c-0.9,1.5-2.1,2.8-3.2,4c0.1-4.3,3.4-9.5,4.7-13.8
	C672.7,574.7,674.1,564.3,674.2,554.4z"/>
<path class="st6" d="M355,552.4l0,0.6c0.6,9.9-0.5,18.9,2.4,28.6c1.6,5.4,4.4,10.6,5.8,16c-3.3-3.1-5.4-7.3-7-11.4
	C352.3,575.7,350.4,562.9,355,552.4z"/>
<path class="st3" d="M626.8,519.4c6-1,11.8-1,16.9,2.7c5.5,4,8.1,10.7,9,17.2c1.1,7.8-0.1,17.3-4.8,23.8c0.2-4,1.3-8,1.5-12
	c0.6-8.5-0.7-18.8-6.7-25.3C638.3,520.9,633,519.6,626.8,519.4z"/>
<path class="st3" d="M388.6,519.5c5-1.5,9.5-1.6,14.5,0c-5.1,0.7-9.2,0.6-14,2.9c-5.9,5-9.6,11.5-10.3,19.3
	c-0.6,7.2,1.2,14.1,1.8,21.3c-0.9-1-1.7-2.2-2.3-3.4c-3.9-7.4-3.9-19.3-1.1-27.1C379.4,526.5,382.9,522.3,388.6,519.5z"/>
<path class="st1" d="M361.2,572.9c0.6-1,0.6-0.9,1.7-1.4c2.8,17.7,11.2,36.5,26.3,47.1c3.9,2.8,8.6,4.2,12.5,7
	c-7.9-0.8-13.3-2.7-19.4-7.8c-1.3-1.1-2.5-2.7-3.9-3.6C369.2,601.4,363.6,588.5,361.2,572.9z"/>
<path class="st1" d="M667.1,566.5l0.6-0.1l1,2.6c-2,15.6-7.6,31.2-18,43.3c-1.3,0.9-2.6,2.6-3.9,3.6c-6.4,5.2-11.7,8-19.9,9.3
	c4.3-2.2,8.5-4.5,12.4-7.3C656.1,605.7,663.9,586.4,667.1,566.5z"/>
<linearGradient id="SVGID_3_" gradientUnits="userSpaceOnUse" x1="672.4108" y1="452.6061" x2="657.7751" y2="453.3312" gradientTransform="matrix(1 0 0 -1 0 1024)">
	<stop  offset="0" style="stop-color:#0D1016"/>
	<stop  offset="1" style="stop-color:#25273D"/>
</linearGradient>
<path class="st11" d="M668.8,554.3c-1.6-8.5-2.4-16.7-2.9-25.3c3.7,8.2,6.4,16.6,8.3,25.4c-0.1,9.9-1.5,20.2-4.4,29.7
	c-1.3,4.2-4.6,9.4-4.7,13.8c-2.4,3.4-9.6,13.7-13.9,14.4c-0.1,0-0.3,0-0.4,0c10.4-12.1,15.9-27.7,18-43.3l-1-2.6l-0.6,0.1
	C666.9,563.5,667,556.7,668.8,554.3z"/>
<path class="st12" d="M667.1,566.5c-0.2-3-0.1-9.9,1.7-12.2c0.9,4.9,0.4,9.7-0.1,14.7l-1-2.6L667.1,566.5z"/>
<path class="st0" d="M363,530.3c-0.2,4.8-0.5,9.6-1.1,14.4c-0.4,2.9-1.5,6.5-1.4,9.3c1.4,2.4,2.4,14.6,2.3,17.5
	c-1,0.5-1,0.3-1.7,1.4c2.4,15.6,8,28.5,17.1,41.4c-5.6-1.5-12.1-12.1-15-16.7c-1.5-5.4-4.2-10.6-5.8-16c-2.9-9.7-1.8-18.7-2.4-28.6
	l0-0.6C357.8,545.1,359.4,537.3,363,530.3z"/>
<path class="st12" d="M360.6,554c1.4,2.4,2.4,14.6,2.3,17.5c-1,0.5-1,0.3-1.7,1.4C360,567.4,359.6,559.5,360.6,554z"/>
<linearGradient id="SVGID_4_" gradientUnits="userSpaceOnUse" x1="526.4364" y1="579.1303" x2="527.9138" y2="562.5968" gradientTransform="matrix(1 0 0 -1 0 1024)">
	<stop  offset="0" style="stop-color:#010105"/>
	<stop  offset="1" style="stop-color:#20263F"/>
</linearGradient>
<path class="st13" d="M500.7,441.5c10.8-0.1,25.4-0.9,35,4.6c-1,0.4-0.5,0.3-1.3,0.4l0,0.4c6.5,1.4,13,2.8,19.3,5.1
	c8,3,18.8,6.6,25.5,11.8c-6.5-1.6-12.8-4.2-19.3-6c-18.4-5.3-36-8-55.2-7.8c-7.1,0.2-14.3,1.8-21.3,1.9c-2.3-1.4-5-0.7-7.6-0.8
	c5.1-2,10.4-2.7,15.7-3.6c-4.2-1.7-8.5,1.1-13,0l0-0.4l4.1-0.8l-0.7-1l0.3-1.1C488.4,442.8,494.3,441.7,500.7,441.5z"/>
<path class="st4" d="M534.5,446.9c6.5,1.4,13,2.8,19.3,5.1c-9.8-0.1-19.3-2.3-28.9-4.5C528.2,447.5,531.3,447.3,534.5,446.9z"/>
<path class="st12" d="M500.7,441.5c10.8-0.1,25.4-0.9,35,4.6c-1,0.4-0.5,0.3-1.3,0.4l0,0.4c-3.2,0.4-6.3,0.6-9.6,0.6
	c-7.4-0.7-14.9-1-22.3-1c-3.7,0.2-7.4,0.9-11,1c-4.2-1.7-8.5,1.1-13,0l0-0.4l4.1-0.8l-0.7-1l0.3-1.1
	C488.4,442.8,494.3,441.7,500.7,441.5z"/>
<path class="st6" d="M482.6,446.4c7.4-1.5,14.7-2.4,22.3-2.4c-0.8,0.9-1.5,1.8-2.3,2.6c-3.7,0.2-7.4,0.9-11,1c-4.2-1.7-8.5,1.1-13,0
	l0-0.4L482.6,446.4z"/>
<path class="st3" d="M504.9,444c5.3,0,10.7-0.1,16.1,0.5c4.5,0.5,9,1.6,13.5,2.1l0,0.4c-3.2,0.4-6.3,0.6-9.6,0.6
	c-7.4-0.7-14.9-1-22.3-1C503.4,445.7,504.1,444.8,504.9,444z"/>
<linearGradient id="SVGID_5_" gradientUnits="userSpaceOnUse" x1="564.1109" y1="431.6563" x2="589.9149" y2="442.2964" gradientTransform="matrix(1 0 0 -1 0 1024)">
	<stop  offset="0" style="stop-color:#070B12"/>
	<stop  offset="1" style="stop-color:#131628"/>
</linearGradient>
<path class="st14" d="M576.8,540.3c-2.8,5.4-5,10.7-6.7,16.6c-1,14.7-1.8,27,8.5,38.8c7.7,8.8,19,16.3,29,22.4l-2.5,0.4
	c0.9,0.9,1.8,1.8,2.5,2.9c-15.9-2.9-32-10.6-42.1-23.4c-6.9-18.2-3.8-23.7-0.2-41.9C568.4,550,571.5,544.7,576.8,540.3z"/>
<path class="st3" d="M570.1,556.9c-1,14.7-1.8,27,8.5,38.8c7.7,8.8,19,16.3,29,22.4l-2.5,0.4c-2.5-1.4-5.3-2.5-7.9-3.8
	c-7.4-3.8-14.1-8.4-19.9-14.4c-8-8.1-11.4-17.5-11.2-28.9C566.2,567,566.8,560,570.1,556.9z"/>
<linearGradient id="SVGID_6_" gradientUnits="userSpaceOnUse" x1="459.3925" y1="424.6266" x2="431.7571" y2="443.2303" gradientTransform="matrix(1 0 0 -1 0 1024)">
	<stop  offset="0" style="stop-color:#080D16"/>
	<stop  offset="1" style="stop-color:#18192E"/>
</linearGradient>
<path class="st15" d="M451.5,539.8c6.1,6.2,10.5,12.6,14.1,20.5c-0.3,6.9,3,13.6,2.3,20.5c-1.2,7.2-2.3,12.4-7,18.1
	c-2.1,2.5-3.9,4.5-5.1,7.7c-14.5,9.7-24.8,13.2-41.9,16.4c1.3-0.7,2.8-1.7,4.2-2.2c10.3-8.7,22.1-13.4,31.5-24
	c12-13.5,9.4-24.9,8.3-41.4C456.4,549.9,454.1,544.8,451.5,539.8z"/>
<path class="st3" d="M457.9,555.4c4.6,6.4,5.7,16.5,4.4,24.1c-2.2,13.4-11.5,23.1-22.1,30.7c-6.5,4.6-14.3,9.1-22.1,10.6
	c10.3-8.7,22.1-13.4,31.5-24C461.6,583.2,458.9,571.9,457.9,555.4z"/>
<path class="st6" d="M597.5,457.6c11.2,6.5,24.9,20.7,32.7,31c-23.6,2.8-42.8,10.3-57.9,29.4c-5,6.3-10.1,13.7-12.2,21.5
	c-2.5,3.5-7.4,7.5-10.8,10.1c2.5-10.8,7-21.5,12.9-30.8c13.8-21.5,30.7-29,54.9-34.2c-3.7-4.7-6.7-9.9-10.3-14.7
	c-2.6-3.5-6-6.7-8.4-10.3C598,459,597.8,458.4,597.5,457.6z"/>
<path class="st6" d="M459.5,436c11.8-0.2,23.9,1.4,35.8,1.7c14.1,0.5,28.2,0.5,42.3,0.8c-7.7,2.2-25.1,3.7-32.9,2.3l-4,0.7
	c-6.4,0.3-12.3,1.4-18.5,2.8l-0.3,1.1l0.7,1l-4.1,0.8l0,0.4c4.6,1,8.8-1.7,13,0c-5.3,0.9-10.7,1.6-15.7,3.6c2.6,0.1,5.3-0.6,7.6,0.8
	c7.1-0.1,14.2-1.7,21.3-1.9c-0.1,0.1-0.2,0.2-0.4,0.3c-6.1,4.5-16.2,6.4-23.4,9c-6.9,2.5-23.2,10-28.3,14.9
	c-1.7,1.6-2.9,3.5-3.3,5.9c-2,11.4,8.8,21.5,13.5,30.7c6,12.1,10.2,25.2,10.8,38.7c-1.8-3.5-4.2-6.3-6.3-9.6
	c-0.5-5.7-6-14.3-9.4-18.9c-12.8-17.5-30.2-28.1-51.5-31.4c2.9-7.9,9.4-16.4,11.5-23.5c5.3-4.9,10.4-11.1,16.4-15
	c3.3-2.2,7.2-3.6,10.8-5.3C450.8,443.2,455,440,459.5,436z"/>
<path class="st16" d="M454.6,454.2c2.8-1.3,5.6-2.6,8.4-3.9l0.3,1l2.1,0.1c-2.3,1.3-4.6,2.4-6.9,3.8C457,455,456,454.8,454.6,454.2z
	"/>
<path class="st5" d="M448.4,460.3l-0.8-0.5l0.1-0.9c1.8-2.1,4.3-3.6,6.9-4.7c1.4,0.7,2.5,0.9,4,1l0.1,0.4
	C455.3,457.2,451.9,459,448.4,460.3z"/>
<path class="st12" d="M482.2,444.3l-0.3,1.1l0.7,1l-4.1,0.8l0,0.4c-4.6,0.7-8.7,2.7-13.1,3.8l-2.1-0.1l-0.3-1
	c4.2-1.9,8.6-3.4,13.1-4.5C478.1,445.2,480.1,444.8,482.2,444.3z"/>
<path class="st3" d="M478.5,447.6c4.6,1,8.8-1.7,13,0c-5.3,0.9-10.7,1.6-15.7,3.6c-5.1,0.8-12.7,4.5-17.1,4.5l-0.1-0.4
	c2.2-1.4,4.6-2.6,6.9-3.8C469.9,450.3,474,448.3,478.5,447.6z"/>
<path class="st7" d="M475.8,451.1c2.6,0.1,5.3-0.6,7.6,0.8c-7.5,1.5-14.8,3.3-22.1,5.4c-4.2,1.2-8.4,2.8-12.7,3.6l-0.4-0.4l0.2-0.2
	c3.5-1.3,6.9-3.1,10.3-4.7C463.2,455.6,470.7,452,475.8,451.1z"/>
<path class="st0" d="M626.8,519.4c6.3,0.2,11.6,1.6,16,6.4c5.9,6.5,7.3,16.8,6.7,25.3c-0.3,4-1.4,8-1.5,12
	c-1.9,3.9-4.3,7.4-7.5,10.4c-10.9,10.7-26.2,11.6-40.6,11.5c9.1,9.3,19.5,14.6,31.1,20.2c-10.6-0.3-20.3-2.8-29.3-8.4
	c-9-5.6-16.5-12.9-18.8-23.5c-2.1-9.5,0.9-19.6,6.1-27.7C597.4,531.9,611.3,522.8,626.8,519.4z"/>
<path class="st0" d="M403.1,519.5c16.2,4.2,30,14,38.6,28.6c5,8.5,7.2,18.3,4.6,27.9c-2.7,9.9-10.5,17.3-19.2,22.2
	c-8.9,5-18.2,7.2-28.3,7.6c12.3-6.3,21.3-11.2,31-21.2c-14,1.2-28.9-0.2-40.1-9.5c-3.7-3.1-7.3-7.5-9.1-12.1
	c-0.6-7.1-2.4-14-1.8-21.3c0.6-7.8,4.4-14.3,10.3-19.3C393.9,520.1,398,520.3,403.1,519.5z"/>
</svg>
